<svg width="50" height="50" viewBox="0 0 50 50" fill="none" xmlns="http://www.w3.org/2000/svg">
<path d="M49.1191 15.4123H39.4246C39.1211 15.4123 38.8758 15.1664 38.8758 14.8635C38.8758 14.5605 39.1211 14.3146 39.4246 14.3146H48.5703V2.7168H1.37109V14.3146H10.5168C10.8197 14.3146 11.0656 14.5605 11.0656 14.8635C11.0656 15.1664 10.8197 15.4123 10.5168 15.4123H0.822266C0.519312 15.4123 0.273438 15.1664 0.273438 14.8635V2.16797C0.273438 1.86502 0.519312 1.61914 0.822266 1.61914H49.1191C49.4226 1.61914 49.668 1.86502 49.668 2.16797V14.8635C49.668 15.1664 49.4226 15.4123 49.1191 15.4123Z" fill="#263D82"/>
<path d="M26.7782 36.7713H14.4707C14.1678 36.7713 13.9219 36.5259 13.9219 36.2224V11.7441C13.9219 11.4412 14.1678 11.1953 14.4707 11.1953C14.7737 11.1953 15.0195 11.4412 15.0195 11.7441V35.6736H26.7782C27.0817 35.6736 27.327 35.9189 27.327 36.2224C27.327 36.5259 27.0817 36.7713 26.7782 36.7713Z" fill="#263D82"/>
<path d="M35.4707 25.3419C35.1672 25.3419 34.9219 25.096 34.9219 24.7931V11.7441C34.9219 11.4412 35.1672 11.1953 35.4707 11.1953C35.7742 11.1953 36.0195 11.4412 36.0195 11.7441V24.7931C36.0195 25.096 35.7737 25.3419 35.4707 25.3419Z" fill="#263D82"/>
<path d="M43.4537 9.06445H6.48633C6.18338 9.06445 5.9375 8.81858 5.9375 8.51562C5.9375 8.21267 6.18338 7.9668 6.48633 7.9668H43.4537C43.7572 7.9668 44.0026 8.21267 44.0026 8.51562C44.0026 8.81858 43.7567 9.06445 43.4537 9.06445Z" fill="#263D82"/>
<path d="M24.9674 21.5252C22.1722 21.5252 19.8984 19.2509 19.8984 16.4562C19.8984 13.6611 22.1728 11.3867 24.9674 11.3867C27.762 11.3867 30.0364 13.6611 30.0364 16.4562C30.0364 19.2509 27.7626 21.5252 24.9674 21.5252ZM24.9674 12.4844C22.7776 12.4844 20.9961 14.2664 20.9961 16.4562C20.9961 18.6461 22.7776 20.4276 24.9674 20.4276C27.1572 20.4276 28.9387 18.6461 28.9387 16.4562C28.9387 14.2664 27.1572 12.4844 24.9674 12.4844Z" fill="#263D82"/>
<path d="M43.4548 41.0012H42.3385C42.5108 39.3058 42.7639 37.8053 43.0141 36.3608C43.5179 33.4465 43.9537 30.9302 43.5053 27.804C43.2029 25.6976 41.7897 23.903 39.8403 23.1308L38.2371 22.4063C37.96 22.2812 37.6356 22.4047 37.511 22.6807C37.3864 22.9568 37.5088 23.2822 37.7849 23.4068L39.4122 24.1412C41.0202 24.7789 42.1722 26.2421 42.4186 27.9599C42.8429 30.9148 42.4214 33.3521 41.9329 36.1742C41.6739 37.6698 41.4115 39.223 41.2359 41.0017H29.8203C30.2709 38.7504 31.3323 36.739 32.8619 35.2917C32.9706 35.1885 33.0331 35.0453 33.0337 34.8949C33.0342 34.7445 32.9739 34.6013 32.8652 34.497L29.4652 31.2265C29.2007 30.9949 28.8972 30.8215 28.5646 30.7101C28.5421 30.7024 28.519 30.6964 28.4954 30.692L25.1114 30.0317C24.0258 29.6508 23.4045 28.5257 23.6641 27.4006L23.7684 26.9473C24.0318 25.803 25.1437 25.0467 26.3435 25.2306L29.6128 25.5154C29.845 25.5511 30.0695 25.6411 30.2599 25.7739L36.5637 30.215C36.8129 30.3896 37.1543 30.3303 37.3288 30.0828C37.5033 29.8347 37.4441 29.4928 37.1965 29.3177L30.89 24.8749C30.5607 24.6455 30.177 24.4919 29.7446 24.4265L26.4752 24.1417C24.7508 23.8744 23.0911 24.9995 22.6993 26.7009L22.595 27.1542C22.2059 28.8435 23.1515 30.5328 24.7952 31.0838C24.8183 31.0915 24.8408 31.0976 24.8644 31.1019L28.2479 31.7616C28.4301 31.8269 28.5953 31.9241 28.7237 32.0355L31.7017 34.9009C30.1781 36.5117 29.1354 38.6467 28.704 41.0017H27.4203C27.1168 41.0017 26.8714 41.247 26.8714 41.5505V47.777C26.8714 48.0805 27.1168 48.3258 27.4203 48.3258H43.4559C43.7594 48.3258 44.0048 48.0805 44.0048 47.777V41.55C44.0037 41.2465 43.7578 41.0012 43.4548 41.0012ZM42.906 47.2276H27.968V42.0988H42.906V47.2276Z" fill="#263D82"/>
</svg>
