<svg width="96" height="96" viewBox="0 0 96 96" fill="none" xmlns="http://www.w3.org/2000/svg">
<g clip-path="url(#clip0_195_22814)">
<path d="M91.638 0.576172H4.36629C2.27414 0.576172 0.578125 2.27219 0.578125 4.36433V91.636C0.578125 93.7282 2.27414 95.4242 4.36629 95.4242H91.638C93.7301 95.4242 95.4261 93.7282 95.4261 91.636V4.36433C95.4261 2.27219 93.7301 0.576172 91.638 0.576172Z" fill="#5C2682"/>
<path d="M18.9022 38.8135V42.3175H26.6532V45.5441H18.9022V51.833H15.3281V35.5879H27.6968V38.8135H18.9022Z" fill="white"/>
<path d="M43.5208 50.4171C43.0656 50.777 42.5713 51.0845 42.0472 51.3339C41.4888 51.5963 40.9005 51.7897 40.2952 51.9099C39.5921 52.0481 38.8768 52.1143 38.1602 52.1077C37.0214 52.118 35.8923 51.8969 34.8415 51.4577C33.8516 51.0454 32.9526 50.4423 32.1957 49.6827C31.4456 48.9207 30.854 48.0175 30.4552 47.0254C30.034 45.9861 29.821 44.8742 29.8284 43.7528V43.7067C29.8199 42.588 30.0329 41.4786 30.4552 40.4427C30.8592 39.4501 31.4501 38.5445 32.1957 37.7748C32.9543 36.9977 33.8621 36.3819 34.8645 35.9643C35.9545 35.515 37.1245 35.2922 38.3032 35.3095C38.9998 35.3043 39.6951 35.3663 40.3797 35.4948C40.9642 35.6067 41.5358 35.7778 42.0856 36.0055C42.5849 36.2163 43.0597 36.4809 43.5016 36.7947C43.9312 37.1015 44.3348 37.4431 44.7084 37.8161L42.4312 40.4379C41.8497 39.9033 41.1976 39.451 40.493 39.0939C39.8019 38.7619 39.043 38.5953 38.2764 38.6071C37.6249 38.6011 36.9798 38.7357 36.3852 39.0017C35.8156 39.2568 35.3058 39.6283 34.8885 40.0923C34.466 40.5644 34.1355 41.1114 33.9141 41.7051C33.6789 42.332 33.5608 42.9968 33.5656 43.6664V43.7124C33.5616 44.3857 33.6796 45.0541 33.9141 45.6852C34.1321 46.2808 34.4575 46.8314 34.8741 47.3096C35.2992 47.7904 35.8228 48.174 36.4094 48.4342C36.996 48.6945 37.6318 48.8253 38.2735 48.8177C39.2021 48.8177 39.9874 48.6475 40.6293 48.307C41.3253 47.9283 41.9688 47.4603 42.5436 46.915L44.8178 49.2123C44.4166 49.6461 43.983 50.0489 43.5208 50.4171Z" fill="white"/>
<path d="M60.389 51.833V41.2269L55.8165 48.1658H55.7205L51.1951 41.297V51.833H47.6719V35.5879H51.5234L55.7935 42.4577L60.0636 35.5879H63.916V51.833H60.389Z" fill="white"/>
<path d="M81.1768 49.3265C80.8894 49.8852 80.4675 50.3636 79.949 50.7185C79.3653 51.112 78.7146 51.3953 78.029 51.5546C77.2113 51.7481 76.3732 51.8416 75.533 51.833H67.8203V35.5879H75.3496C77.0168 35.5879 78.3253 35.9671 79.275 36.7255C80.2248 37.4839 80.7 38.505 80.7006 39.7889V39.8397C80.7072 40.2562 80.6486 40.6712 80.5269 41.0695C80.4187 41.4094 80.2636 41.7325 80.0661 42.0295C79.8781 42.3109 79.6519 42.5649 79.3941 42.7841C79.1429 42.9993 78.8685 43.1861 78.5761 43.3409C79.515 43.6973 80.2542 44.1809 80.7938 44.7914C81.3333 45.402 81.6027 46.2474 81.6021 47.3277V47.3738C81.6185 48.0493 81.4727 48.719 81.1768 49.3265ZM77.1726 40.3917C77.1726 39.8503 76.9717 39.4365 76.5698 39.1505C76.1678 38.8644 75.5877 38.7213 74.8293 38.7213H71.3013V42.1553H74.5941C75.3832 42.1553 76.0098 42.0199 76.4738 41.7492C76.9378 41.4785 77.1698 41.0413 77.1698 40.4378L77.1726 40.3917ZM78.0779 46.89C78.0863 46.6401 78.0336 46.392 77.9243 46.1672C77.8151 45.9423 77.6526 45.7475 77.451 45.5997C77.0331 45.2829 76.3611 45.1229 75.435 45.1197H71.307V48.6938H75.5541C76.3432 48.6938 76.9621 48.5508 77.4107 48.2647C77.8594 47.9786 78.0834 47.5338 78.0827 46.9303L78.0779 46.89Z" fill="white"/>
<path d="M81.3316 62.2422V70.1967H14.9688V66.0131C14.9686 65.5178 15.0661 65.0274 15.2555 64.5699C15.445 64.1123 15.7227 63.6966 16.0729 63.3464C16.4231 62.9962 16.8389 62.7184 17.2964 62.529C17.754 62.3395 18.2444 62.2421 18.7396 62.2422H81.3316Z" fill="#FAB613"/>
<path d="M14.9688 72.7734H81.3316V80.728H18.7396C18.2443 80.7281 17.7538 80.6306 17.2962 80.4411C16.8386 80.2516 16.4228 79.9738 16.0726 79.6235C15.7224 79.2732 15.4447 78.8573 15.2553 78.3997C15.0659 77.942 14.9685 77.4515 14.9688 76.9562V72.7734Z" fill="#FAB613"/>
</g>
<defs>
<clipPath id="clip0_195_22814">
<rect width="96" height="96" fill="white"/>
</clipPath>
</defs>
</svg>
