<svg width="114" height="114" viewBox="0 0 114 114" fill="none" xmlns="http://www.w3.org/2000/svg">
<path d="M14.8594 104.64H10.4442L10.5012 102.518V89.2624C10.4948 88.6669 10.4568 88.0721 10.3872 87.4806C10.3587 87.1983 10.2964 86.9204 10.2014 86.653C10.0871 86.4292 9.95438 86.2153 9.80469 86.0134L10.0327 85.4058H14.921L20.3086 85.3203C20.6472 85.8241 20.8512 86.4061 20.9014 87.0109C20.9661 87.6256 20.8905 88.2469 20.6803 88.8281H20.0088C19.9222 88.4131 19.603 88.0597 19.0512 87.7679C18.5086 87.4781 17.9079 87.3137 17.2933 87.2868L14.7204 87.1728C14.5957 89.3981 14.5338 91.6089 14.5345 93.8053H18.1928C18.4877 93.8053 18.7157 93.8008 18.8768 93.7917C19.0803 93.772 19.2802 93.7245 19.4707 93.6503C19.6927 93.572 19.895 93.4464 20.0635 93.2821C20.1265 93.6082 20.1597 93.9394 20.1627 94.2716C20.1627 95.4694 19.272 96.0682 17.4906 96.0682C17.128 96.0682 16.6135 96.0587 15.947 96.0397C15.2805 96.0207 14.7994 96.0112 14.5038 96.0112C14.4946 97.2652 14.5091 98.642 14.5471 100.141L14.5893 102.404L14.6611 103.31C14.6755 103.759 14.7421 104.206 14.8594 104.64Z" fill="#11237D"/>
<path d="M27.9225 98.3317C27.9225 101.028 28.0274 103.131 28.2371 104.639H24.1331L24.2904 94.768C24.2964 94.2289 24.2437 93.6907 24.1331 93.1629C24.0655 92.8007 23.9449 92.4503 23.7752 92.1232C23.6567 91.9155 23.5072 91.7271 23.3317 91.5646C23.2249 91.4558 23.0994 91.367 22.9612 91.3024C22.9058 91.2812 22.848 91.267 22.7891 91.2603V90.737C23.9055 90.0576 24.9592 89.7178 25.9503 89.7178C27.3608 89.7178 28.0657 90.6371 28.065 92.4755C28.065 92.7582 28.0414 93.2366 27.9943 93.9108C27.9464 94.5856 27.9225 95.11 27.9225 95.4874V98.3317ZM23.7923 86.0128C23.7876 85.7448 23.8388 85.4788 23.9427 85.2317C24.0465 84.9846 24.2006 84.7618 24.3953 84.5776C24.5843 84.3877 24.8095 84.2378 25.0577 84.1369C25.3059 84.036 25.5718 83.9862 25.8397 83.9905C26.0975 83.988 26.3531 84.0388 26.5902 84.1399C26.8274 84.2409 27.0412 84.3899 27.218 84.5776C27.4067 84.7651 27.5553 84.9891 27.6548 85.2358C27.7544 85.4825 27.8028 85.7469 27.7971 86.0128C27.8006 86.2685 27.7509 86.5222 27.6512 86.7577C27.5515 86.9932 27.404 87.2054 27.218 87.3808C27.0385 87.5638 26.8239 87.7087 26.587 87.8066C26.3502 87.9046 26.096 87.9536 25.8397 87.9508C25.3017 87.9599 24.7822 87.7548 24.3953 87.3808C24.2035 87.2087 24.0505 86.9977 23.9465 86.7618C23.8425 86.5259 23.7899 86.2706 23.7923 86.0128Z" fill="#11237D"/>
<path d="M46.3592 103.513V104.149C45.2063 104.733 44.1347 105.025 43.1444 105.026C42.6444 105.013 42.1564 104.87 41.7297 104.608C41.2534 104.342 40.8769 103.927 40.6569 103.427C39.3908 104.491 38.076 105.023 36.7125 105.023C35.9585 105.028 35.2099 104.894 34.5044 104.628C33.7995 104.355 33.1538 103.948 32.6028 103.431C32.026 102.899 31.57 102.173 31.2348 101.253C30.8997 100.334 30.7329 99.2698 30.7344 98.0614C30.7358 97.2606 30.8341 96.4629 31.0274 95.6857C31.2267 94.8879 31.5335 94.1208 31.9394 93.4057C32.3342 92.6925 32.826 92.0376 33.4008 91.4597C33.991 90.8782 34.6903 90.4191 35.4585 90.1088C36.2823 89.7694 37.1657 89.5981 38.0566 89.6049C38.5229 89.6141 38.9873 89.6691 39.4428 89.7691C39.9748 89.877 40.2408 89.9499 40.2408 89.9879C40.2408 89.3936 40.2359 88.8445 40.226 88.3406C40.2161 87.8368 40.2021 87.377 40.1838 86.9612C40.169 86.5891 40.1282 86.2185 40.0619 85.852C40.01 85.5606 39.9263 85.2758 39.8122 85.0027C39.7143 84.7693 39.5662 84.5602 39.3784 84.3904C39.1907 84.2206 38.9679 84.0941 38.7258 84.0201V83.4968L39.1259 83.2848C39.4848 83.0973 39.8633 82.9501 40.2545 82.8459C40.7092 82.7092 41.1809 82.6378 41.6556 82.6338C42.0117 82.626 42.3673 82.6643 42.7135 82.7478C42.9967 82.8283 43.2547 82.9793 43.4636 83.1867C43.7125 83.4507 43.883 83.7787 43.9561 84.1341C44.0734 84.6573 44.1273 85.1928 44.1168 85.7289V86.0971C44.1168 86.2674 44.0933 86.9084 44.0462 88.0203C43.999 89.1322 43.9485 90.4964 43.8945 92.1129C43.8421 93.7256 43.8159 95.2297 43.8159 96.625C43.8159 97.4268 43.8204 98.0842 43.8296 98.5972C43.8387 99.1102 43.8581 99.6244 43.8877 100.14C43.9053 100.544 43.9434 100.947 44.0017 101.348C44.0496 101.643 44.119 101.933 44.2092 102.218C44.269 102.446 44.3732 102.66 44.5158 102.847C44.6458 102.993 44.7978 103.117 44.9661 103.215C45.1524 103.329 45.3586 103.406 45.5738 103.443C45.8337 103.484 46.0962 103.507 46.3592 103.513ZM38.2276 102.933C38.9998 102.933 39.6332 102.758 40.128 102.409L40.1576 99.0851V91.8689C39.1088 91.6143 38.3275 91.4871 37.8138 91.4871C37.2404 91.4778 36.6825 91.6734 36.2406 92.0388C35.7821 92.4227 35.4319 92.9199 35.2248 93.4809C34.9998 94.0592 34.8325 94.6583 34.7255 95.2696C34.6211 95.8674 34.5685 96.473 34.5682 97.0799C34.5682 98.9183 34.9064 100.354 35.5828 101.386C36.2592 102.418 37.1408 102.932 38.2276 102.929V102.933Z" fill="#11237D"/>
<path d="M59.1945 96.5631L58.9358 96.6714C58.4501 96.8607 57.7927 96.9553 56.9636 96.9553L50.4758 96.8698C50.4941 97.0864 50.5043 97.4455 50.5043 97.9448C50.5416 99.3493 50.9679 100.451 51.7834 101.251C52.5989 102.05 53.5063 102.451 54.5057 102.454C55.4063 102.446 56.2948 102.246 57.1118 101.866C57.9934 101.47 58.7674 100.782 59.4339 99.8019C59.5959 100.378 59.5959 100.987 59.4339 101.563C59.2783 102.113 58.9857 102.614 58.5835 103.02C58.1521 103.45 57.6582 103.812 57.1186 104.094C56.5326 104.406 55.9077 104.639 55.2604 104.787C54.6 104.94 53.924 105.017 53.246 105.015C52.4212 105.022 51.6015 104.886 50.8235 104.612C50.0736 104.342 49.383 103.93 48.7898 103.397C48.1818 102.856 47.6984 102.128 47.3397 101.213C46.981 100.298 46.7974 99.2467 46.7891 98.0588C46.7891 96.5038 47.0581 95.0944 47.5962 93.8305C48.1343 92.5667 48.9121 91.5657 49.9298 90.8278C50.9376 90.0902 52.158 89.7005 53.4068 89.7174C54.1047 89.7083 54.8002 89.8013 55.4713 89.9933C56.01 90.1416 56.5215 90.3752 56.9864 90.6853C57.3839 90.9669 57.7308 91.3138 58.0124 91.7113C58.274 92.065 58.4944 92.4474 58.669 92.8513C58.8245 93.2364 58.9392 93.6369 59.011 94.046C59.0789 94.3921 59.1291 94.7414 59.1615 95.0925C59.1809 95.3524 59.19 95.6181 59.19 95.8905L59.1945 96.5631ZM53.2209 91.4856C52.8492 91.4798 52.4847 91.5885 52.1767 91.7968C51.8481 92.0321 51.5833 92.3456 51.4061 92.7088C51.1954 93.1106 51.0207 93.5302 50.8839 93.9628C50.7284 94.4712 50.6021 94.9881 50.5055 95.5109C51.0679 95.5018 51.9156 95.4737 53.0488 95.4265C54.182 95.3794 55.0586 95.3509 55.6788 95.341C55.6699 94.8867 55.6173 94.4343 55.5215 93.9901C55.4293 93.562 55.2853 93.1466 55.0928 92.7532C54.9171 92.3846 54.6518 92.0659 54.321 91.8264C53.9998 91.5989 53.6145 91.4795 53.2209 91.4856Z" fill="#11237D"/>
<path d="M66.6712 104.639H62.5672C62.6242 101.675 62.6527 98.931 62.6527 96.4078L62.7245 87.314C62.7245 86.3609 62.5699 85.6009 62.2605 85.034C61.9512 84.467 61.6066 84.1281 61.2266 84.0171V83.4938L61.6267 83.2818C61.9958 83.095 62.3837 82.9479 62.7838 82.8429C63.2482 82.7061 63.7293 82.6348 64.2134 82.6309C65.1254 82.6309 65.7543 82.8668 66.1001 83.3388C66.4459 83.8108 66.6172 84.5366 66.6142 85.5162C66.6142 86.1105 66.5857 86.7896 66.5287 87.5534C66.4071 89.6191 66.3463 92.1556 66.3463 95.1629V98.8542C66.3463 99.9098 66.3702 100.933 66.4181 101.923C66.4566 102.832 66.5411 103.738 66.6712 104.639Z" fill="#11237D"/>
<path d="M74.5073 98.3317C74.5073 101.028 74.6122 103.131 74.8219 104.639H70.7179L70.8764 94.768C70.8826 94.2288 70.8295 93.6905 70.7179 93.1629C70.6511 92.8006 70.5309 92.4502 70.3611 92.1232C70.2427 91.9155 70.0931 91.7271 69.9176 91.5646C69.8106 91.4555 69.6847 91.3666 69.546 91.3024C69.4911 91.2811 69.4336 91.2669 69.375 91.2602V90.737C70.4907 90.0575 71.544 89.7178 72.5351 89.7178C73.9456 89.7178 74.6505 90.637 74.6498 92.4755C74.6498 92.7582 74.6262 93.2366 74.5791 93.9107C74.5312 94.5856 74.5073 95.11 74.5073 95.4874V98.3317ZM70.3771 86.0128C70.372 85.7451 70.4227 85.4792 70.5259 85.2321C70.6291 84.985 70.7826 84.7621 70.9767 84.5776C71.1655 84.3877 71.3905 84.2379 71.6385 84.137C71.8865 84.0362 72.1523 83.9863 72.4199 83.9905C72.6779 83.9879 72.9336 84.0388 73.171 84.1398C73.4084 84.2408 73.6223 84.3899 73.7993 84.5776C73.988 84.7651 74.1367 84.989 74.2362 85.2358C74.3358 85.4825 74.3842 85.7468 74.3785 86.0128C74.382 86.2685 74.3323 86.5222 74.2326 86.7577C74.1329 86.9932 73.9854 87.2054 73.7993 87.3808C73.6197 87.5639 73.4049 87.7087 73.1678 87.8066C72.9308 87.9046 72.6764 87.9536 72.4199 87.9508C71.8823 87.9597 71.3632 87.7546 70.9767 87.3808C70.7855 87.2084 70.6331 86.9972 70.5297 86.7613C70.4263 86.5255 70.3743 86.2703 70.3771 86.0128Z" fill="#11237D"/>
<path d="M83.3941 87.6113L83.0646 90.0156H85.8006C86.1105 90.0129 86.4193 89.9773 86.7217 89.9096C87.0516 89.8389 87.259 89.7188 87.3442 89.5493C87.4048 89.7753 87.4335 90.0086 87.4297 90.2424C87.4297 91.4014 86.5914 91.9813 84.9148 91.9821C84.7628 91.9821 84.4459 91.9676 83.9641 91.9388C83.4822 91.9099 83.1558 91.8958 82.9848 91.8966V98.4163C82.9757 98.6899 82.9757 98.9783 82.9848 99.2792C82.9939 99.5802 83.0065 99.88 83.0202 100.178C83.0333 100.465 83.0816 100.75 83.1638 101.026C83.2357 101.274 83.3388 101.512 83.4704 101.734C83.6013 101.942 83.7865 102.111 84.0062 102.222C84.2613 102.349 84.5434 102.412 84.8282 102.405C85.454 102.4 86.0756 102.302 86.6727 102.114C87.31 101.922 87.7112 101.665 87.8731 101.344C87.996 101.63 88.0459 101.941 88.0184 102.251C87.991 102.561 87.887 102.859 87.7158 103.119C87.3639 103.699 86.8137 104.161 86.0651 104.505C85.3095 104.851 84.4873 105.027 83.6563 105.021C82.7617 105.021 82.0211 104.918 81.4344 104.71C80.8986 104.539 80.4308 104.203 80.0983 103.749C79.7905 103.31 79.5763 102.811 79.4691 102.285C79.3441 101.621 79.2868 100.946 79.2981 100.27C79.2981 99.5532 79.3456 98.4892 79.4406 97.0779C79.5356 95.6666 79.5831 94.6341 79.5831 93.9805C79.5831 92.8679 79.4976 92.2033 79.3266 91.9867C78.9476 91.5034 78.4386 91.1384 77.8594 90.9344L78.0019 90.0726C78.1178 90.0676 78.2326 90.0485 78.3439 90.0156C78.5718 89.9457 78.794 89.8584 79.0085 89.7545C79.3834 89.5619 79.722 89.3058 80.0094 88.9976C80.4142 88.5817 80.7644 88.1158 81.0514 87.6113H83.3941Z" fill="#11237D"/>
<path d="M97.028 104.612L96.686 104.47C96.3987 104.346 96.139 104.166 95.9222 103.94C95.651 103.688 95.4513 103.368 95.3431 103.013L92.7838 94.9627C92.6201 94.4148 92.4123 93.8811 92.1625 93.3667C91.981 92.9827 91.7654 92.6156 91.5184 92.2701C91.3458 92.036 91.1524 91.8181 90.9404 91.6191C90.8075 91.4927 90.6636 91.3783 90.5106 91.2771C90.4445 91.2342 90.3728 91.2009 90.2974 91.1779L90.2678 90.6547C90.6636 90.3826 91.0937 90.164 91.5469 90.0049C92.0004 89.8258 92.4821 89.7289 92.9696 89.7188C93.7896 89.7188 94.3896 89.9118 94.7696 90.2979C95.1496 90.684 95.4536 91.3014 95.6816 92.1504C95.8716 93.2448 96.6339 95.6388 97.9685 99.3324L98.3185 100.046C98.5328 100.485 98.6495 100.732 98.6685 100.789L98.811 100.195C98.8871 99.8538 98.9877 99.5182 99.1119 99.191L100.955 93.9721C101.222 93.228 101.355 92.62 101.355 92.1481C101.355 91.6761 101.194 91.3508 100.87 91.1722L100.812 90.649C101.472 90.0822 102.303 89.7545 103.173 89.7188C103.857 89.7188 104.199 90.0771 104.199 90.7938C104.199 91.2931 103.955 92.1416 103.469 93.3394L97.6425 107.539C97.4327 108.048 97.2564 108.461 97.1135 108.777C96.9706 109.093 96.7863 109.467 96.5606 109.897C96.3732 110.266 96.1407 110.611 95.8686 110.923C95.6141 111.197 95.3393 111.453 95.0467 111.687C94.7349 111.94 94.375 112.128 93.9888 112.238C93.5686 112.354 93.1341 112.41 92.6983 112.405C91.8212 112.405 91.1327 112.075 90.6326 111.415C90.1325 110.756 89.9805 109.935 90.1766 108.954C90.3674 109.19 90.6748 109.383 91.0989 109.534C91.509 109.683 91.9416 109.76 92.3779 109.762C93.1015 109.762 93.7182 109.628 94.2281 109.36C94.714 109.116 95.0969 108.707 95.3077 108.206L96.6757 105.223L97.028 104.612Z" fill="#11237D"/>
<path d="M87.9545 1.79748C87.2258 1.66293 86.4863 1.59538 85.7452 1.5957H16.6748C16.5105 1.59601 16.3529 1.66144 16.2367 1.77768C16.1204 1.89392 16.055 2.05148 16.0547 2.21586V60.1358C16.0537 62.8855 16.9839 65.5544 18.6938 67.7077C38.6324 59.9899 73.6794 33.0335 89.4878 2.18052C88.9857 2.01918 88.4735 1.89122 87.9545 1.79748Z" fill="#11237D"/>
<path d="M97.94 13.7932V71.7109C97.9398 71.8753 97.8743 72.0329 97.7581 72.1491C97.6418 72.2653 97.4843 72.3308 97.3199 72.3311H28.2496C26.4158 72.3327 24.6054 71.9204 22.9531 71.1249C43.2611 62.9956 78.4198 35.6561 93.7688 4.60938C95.081 5.75231 96.1325 7.16371 96.8522 8.74813C97.5718 10.3325 97.9428 12.053 97.94 13.7932Z" fill="#4DC247"/>
</svg>
