<svg width="110" height="111" viewBox="0 0 110 111" fill="none" xmlns="http://www.w3.org/2000/svg">
<g clip-path="url(#clip0_195_22816)">
<path fill-rule="evenodd" clip-rule="evenodd" d="M0 0H109.679V111H0V0Z" fill="#D94F00"/>
<path fill-rule="evenodd" clip-rule="evenodd" d="M62.4053 21.5234H90.5215V49.6963H62.4053V21.5234ZM28.4144 63.947V66.7031H33.2602V81.2841H36.6015V66.5917H41.1133V63.8356L28.4144 63.9488V63.947ZM25.9187 67.3638V64.6077C23.2381 63.3957 20.1554 63.0295 16.9991 64.6077C11.8229 66.9221 11.6379 78.3826 16.816 80.6234C19.7892 82.1298 25.9905 81.4313 26.6153 80.108V71.0355H20.4499V73.4235H23.1645V78.1995C14.2449 82.5338 12.5931 61.7062 25.9187 67.3638ZM46.5481 73.2762H49.7403C52.3832 73.3876 53.0816 78.3826 49.6308 78.3449H46.5481V73.2762ZM46.5481 66.2613H49.7403C52.3832 66.739 51.4299 70.6693 49.6308 70.7787H46.5481V66.2613ZM43.2446 63.5807V81.1369H52.0169C56.4947 79.5209 56.6797 72.5797 52.0169 71.8434C56.3116 71.3677 56.5325 63.4694 49.1174 63.4694L43.2446 63.5807ZM58.7336 68.5021V71.1091C61.0819 70.4484 66.1845 68.6116 65.7069 72.506C61.2292 72.2116 58.1824 73.0195 57.6689 75.8096C56.8251 81.8353 63.285 82.4224 66.0014 79.4473V80.8801H69.0841V70.3011C68.3139 66.8843 63.2132 66.4445 58.7336 68.5021ZM61.3387 75.298C62.0372 74.3787 64.276 74.4146 65.7806 74.8563V77.1707C63.3227 79.8135 59.3584 78.6035 61.3406 75.2961L61.3387 75.298ZM75.4723 71.6245C76.2803 70.7429 80.5749 69.0892 81.2356 71.6245V80.9537H84.6845V71.0732C83.9502 66.9579 80.0218 66.2236 75.2514 69.0156V67.4733H71.9856V81.0274H75.4345L75.4723 71.6245ZM95.5127 67.326L90.9991 73.3857L95.7713 80.8424L99.9187 80.7329L94.6708 73.5707L99.4053 67.4355L95.5146 67.326H95.5127ZM87.2557 62.8804H90.6687V80.8424H87.2538V62.8823L87.2557 62.8804Z" fill="white"/>
<path fill-rule="evenodd" clip-rule="evenodd" d="M62.3984 21.5234H90.5147V49.6963H62.3984V21.5234Z" fill="white"/>
</g>
<defs>
<clipPath id="clip0_195_22816">
<rect width="109.679" height="111" fill="white"/>
</clipPath>
</defs>
</svg>
