<svg width="110" height="109" viewBox="0 0 110 109" fill="none" xmlns="http://www.w3.org/2000/svg">
<g clip-path="url(#clip0_195_22813)">
<path d="M0.679688 0H109.68V109H0.679688V0Z" fill="#8934AD"/>
<path d="M21.5543 72.1894C21.5543 72.9713 21.2475 73.6268 20.6343 74.1558C20.021 74.6845 19.3043 74.949 18.4841 74.949C18.1162 74.949 17.7597 74.8878 17.4148 74.765C17.6064 74.765 17.7789 74.7421 17.9322 74.6962C17.9628 74.6885 18.1315 74.6233 18.4382 74.5005C18.8828 74.3321 19.2278 74.1059 19.4729 73.8223C19.7797 73.4696 19.9329 73.0442 19.9329 72.5458C19.9329 72.3773 19.9176 72.2202 19.887 72.0744C19.8179 71.6451 19.6072 71.3233 19.2546 71.1085C18.9096 70.894 18.4726 70.7867 17.9437 70.7867C17.7597 70.7867 17.5643 70.7982 17.3572 70.8211L16.9204 70.8787V77.6627C16.9204 77.8851 16.9319 78.0805 16.9549 78.2492C16.9778 78.41 17.039 78.5596 17.1388 78.6976C17.2 78.7896 17.2729 78.8778 17.3572 78.9621C17.4534 79.0415 17.5574 79.1108 17.6678 79.169H14.8276C14.981 79.0923 15.073 79.0426 15.1036 79.0195C15.1801 78.9659 15.2493 78.8663 15.3105 78.7206C15.3795 78.5749 15.4256 78.41 15.4486 78.2261C15.4715 78.0344 15.483 77.8428 15.483 77.6512V71.2005V71.0512C15.483 70.8441 15.4715 70.6831 15.4486 70.5681C15.4333 70.4456 15.3797 70.3151 15.2875 70.1773C15.2324 70.0926 15.1668 70.0153 15.0921 69.9472C15.0233 69.8858 14.9273 69.8246 14.8047 69.7633H18.3348C19.201 69.7633 19.9369 69.9663 20.5423 70.3727C21.2169 70.825 21.5543 71.4306 21.5543 72.1894ZM36.52 74.7191C36.52 75.961 36.0792 77.038 35.1976 77.9501C34.247 78.9313 33.0322 79.422 31.5526 79.422C29.9276 79.422 28.6091 78.9544 27.5971 78.0191C26.5853 77.0762 26.0793 75.8996 26.0793 74.4891C26.0793 73.1706 26.5124 72.0362 27.3787 71.0856C28.3216 70.0507 29.5442 69.5332 31.0466 69.5332C32.8635 69.5332 34.2625 70.0776 35.2437 71.1661C36.0945 72.1167 36.52 73.301 36.52 74.7191ZM34.9217 74.5237C34.9217 73.435 34.6381 72.5343 34.0707 71.8214C33.4116 70.9936 32.4724 70.5796 31.2537 70.5796C30.1574 70.5796 29.2797 70.9936 28.6205 71.8214C28.0226 72.5728 27.7237 73.4926 27.7237 74.5811C27.7237 75.6927 28.0687 76.6163 28.7586 77.3523C29.456 78.0805 30.3414 78.4446 31.4146 78.4446C32.4571 78.4446 33.3158 78.0306 33.9904 77.2028C34.6111 76.4362 34.9217 75.5431 34.9217 74.5237ZM47.7606 77.2487L47.0362 79.169H41.0341C41.1182 79.1308 41.2064 79.0923 41.2986 79.0541C41.4278 78.9785 41.5318 78.8665 41.5975 78.732C41.6745 78.593 41.7252 78.441 41.747 78.2836C41.7776 78.1226 41.7929 77.9463 41.7929 77.7547V71.281V71.12C41.7929 70.8825 41.7814 70.6986 41.7585 70.5681C41.7432 70.4379 41.6894 70.2998 41.5975 70.1541C41.5361 70.0468 41.4709 69.9702 41.402 69.9243C41.3406 69.8782 41.2372 69.8246 41.0915 69.7633H43.9777C43.8396 69.8246 43.7362 69.882 43.6671 69.9357C43.5981 69.9818 43.5293 70.0583 43.4602 70.1658C43.3682 70.319 43.3107 70.4762 43.2877 70.6372C43.2648 70.7982 43.2533 71.0319 43.2533 71.3386V77.9501C43.3222 77.9733 43.5675 78.0115 43.9892 78.0652C44.4185 78.1188 44.8361 78.1455 45.2425 78.1455C45.71 78.1455 46.0779 78.0958 46.3462 77.9962C46.5576 77.9132 46.7684 77.8289 46.9786 77.7432C47.1934 77.6512 47.454 77.4864 47.7606 77.2487ZM62.5559 79.169H59.4513C59.6121 79.1537 59.7846 79.0464 59.9687 78.847C60.0299 78.7781 60.0607 78.6938 60.0607 78.5942C60.0607 78.502 60.0338 78.3832 59.9802 78.2377L58.9453 75.6504H55.3923L54.5298 77.9962C54.4691 78.162 54.438 78.3371 54.4379 78.5137C54.4379 78.6976 54.4801 78.8317 54.5645 78.916C54.71 79.0541 54.8595 79.1384 55.0129 79.169H52.2647C52.3677 79.1218 52.4676 79.068 52.5636 79.008C52.648 78.9466 52.7323 78.8778 52.8166 78.8011C52.9391 78.6784 53.0436 78.5391 53.127 78.3871C53.1807 78.2874 53.2536 78.1264 53.3456 77.9042L56.2086 70.7636C56.2394 70.6869 56.2624 70.6219 56.2777 70.5681C56.293 70.5067 56.3006 70.4417 56.3006 70.3727C56.3006 70.319 56.2891 70.2501 56.2662 70.1658C56.1972 69.9434 56.0361 69.8093 55.7832 69.7633H58.106L61.2335 77.4787C61.2871 77.6321 61.3485 77.7891 61.4175 77.9501C61.4865 78.1035 61.5785 78.2607 61.6934 78.4217C61.8061 78.5717 61.9331 78.7103 62.0728 78.8355C62.2033 78.9506 62.3641 79.0617 62.5559 79.169ZM58.6118 74.6386L57.209 71.0741L55.7832 74.6386H58.6118ZM76.0514 79.169C76.0285 79.1766 75.9019 79.1843 75.672 79.1919C75.4496 79.1996 75.1813 79.2034 74.8671 79.2034H74.6947C74.2193 79.2034 73.8743 79.1805 73.6597 79.1346C73.4528 79.0808 73.1922 78.9007 72.8778 78.5942C72.6248 78.3488 72.3221 78 71.9695 77.5478C71.6571 77.1429 71.3466 76.7366 71.038 76.3289C70.8234 76.0606 70.5437 75.6542 70.1987 75.11C69.938 74.6962 69.7694 74.4241 69.6927 74.2936C69.8308 74.2936 70.0071 74.2707 70.2216 74.2246C70.4418 74.1692 70.6571 74.0962 70.8655 74.0062C71.2489 73.8376 71.5478 73.6268 71.7626 73.3738C72.0308 73.0595 72.1649 72.6915 72.1649 72.2699C72.1649 72.224 72.1611 72.1702 72.1534 72.1089C72.1458 72.04 72.1419 71.9863 72.1419 71.948C72.0806 71.5646 71.8813 71.2581 71.544 71.028C71.2066 70.7905 70.789 70.6716 70.2907 70.6716C70.0838 70.6716 69.8499 70.7024 69.5892 70.7636L69.3709 70.8211V77.8696C69.3709 78.0767 69.3747 78.2377 69.3823 78.3526C69.3976 78.4599 69.4359 78.5749 69.4973 78.6976C69.5586 78.8202 69.6198 78.9122 69.6812 78.9736C69.7426 79.0271 69.8384 79.0923 69.9686 79.169H67.2322C67.3624 79.1076 67.4659 79.0464 67.5425 78.985C67.6269 78.9237 67.6959 78.8317 67.7494 78.7091C67.8088 78.5859 67.8477 78.4538 67.8646 78.318C67.8875 78.1802 67.899 78.0268 67.899 77.8581V71.189C67.899 70.9055 67.8799 70.6986 67.8414 70.5681C67.8105 70.4296 67.7561 70.2974 67.6806 70.1773C67.5731 70.0009 67.4123 69.8629 67.1976 69.7633H70.7852C71.5824 69.7633 72.2416 69.951 72.7629 70.3266C73.3532 70.7483 73.6483 71.3462 73.6483 72.1205C73.6483 72.6187 73.4413 73.1132 73.0273 73.6037C72.6133 74.0867 72.1035 74.4086 71.4981 74.5696L71.36 74.6042L73.6597 77.5132C73.8131 77.6971 74.02 77.9042 74.2806 78.1341C74.4952 78.318 74.6947 78.4676 74.8786 78.5825C75.0626 78.69 75.258 78.8011 75.4649 78.916C75.6336 79.008 75.829 79.0923 76.0514 79.169ZM83.8482 79.169H80.9734C81.0731 79.1153 81.1497 79.0732 81.2035 79.0426C81.3261 78.9659 81.4142 78.8701 81.4679 78.755C81.5291 78.6324 81.5752 78.4982 81.6058 78.3526C81.6443 78.1993 81.6634 78.0306 81.6634 77.8467V71.2005V71.0512C81.6634 70.8364 81.6519 70.6716 81.629 70.5567C81.6058 70.4417 81.5446 70.3037 81.4448 70.1426C81.3452 69.9818 81.1882 69.8552 80.9734 69.7633H83.8365C83.7139 69.817 83.6143 69.8744 83.5376 69.9357C83.4552 70.0037 83.3852 70.0854 83.3307 70.1773C83.277 70.2769 83.2311 70.4379 83.1926 70.6601C83.1544 70.8749 83.1351 71.0703 83.1351 71.2466V77.8811C83.1351 78.0652 83.1467 78.2184 83.1697 78.3412C83.1926 78.4561 83.2464 78.598 83.3307 78.7665C83.3843 78.8663 83.4495 78.9466 83.5261 79.008C83.6105 79.0617 83.7178 79.1153 83.8482 79.169ZM95.5576 76.4438C95.5576 77.3715 95.1398 78.1111 94.3041 78.663C93.5453 79.1614 92.6294 79.4105 91.556 79.4105C91.2495 79.4105 90.9735 79.399 90.7282 79.3759C90.4757 79.3503 90.2258 79.3042 89.9809 79.238L89.1184 79.0195L88.739 77.2143L88.9345 77.3523C89.8927 78.0268 90.8125 78.3641 91.6941 78.3641C92.3532 78.3641 92.8822 78.2377 93.2809 77.9847C93.687 77.7241 93.8903 77.3982 93.8903 77.0074C93.8903 76.5167 93.7064 76.1181 93.3384 75.8114C92.9782 75.4972 92.246 75.1023 91.1422 74.6271C90.345 74.2822 89.7699 73.8682 89.4173 73.3853C89.1337 72.9942 88.992 72.5535 88.992 72.063C88.992 71.189 89.3368 70.5375 90.0267 70.1082C90.6324 69.7327 91.468 69.5449 92.5336 69.5449C92.9321 69.5449 93.2885 69.5678 93.6029 69.6137C93.9171 69.6522 94.2468 69.725 94.5917 69.8323L94.7411 69.8782V71.4879L94.5686 71.3271C94.308 71.0894 93.9747 70.894 93.5683 70.7406C93.1797 70.5891 92.7664 70.5111 92.3494 70.5106C91.8819 70.5106 91.4795 70.6219 91.1422 70.8441C90.8049 71.0588 90.6362 71.3501 90.6362 71.718C90.6362 72.2087 90.8509 72.6225 91.2801 72.9598C91.5868 73.2052 92.154 73.5079 92.982 73.8682C93.8175 74.2208 94.4422 74.5925 94.8562 74.9836C95.3238 75.4282 95.5576 75.9149 95.5576 76.4438ZM37.8712 90.95C37.8712 91.7243 37.5339 92.3987 36.8592 92.9738C36.1387 93.587 35.2342 93.8936 34.1457 93.8936H30.5007C30.6156 93.8475 30.7038 93.8016 30.7652 93.7555C30.8342 93.7096 30.8992 93.6444 30.9606 93.5601C31.0526 93.4298 31.114 93.2994 31.1446 93.1692C31.1752 93.0388 31.1906 92.8818 31.1906 92.6978V85.9941V85.8331V85.6952C31.1906 85.5036 31.1752 85.3464 31.1446 85.2237C31.1236 85.0982 31.0723 84.9797 30.995 84.8787C30.9262 84.7714 30.8495 84.6909 30.7652 84.6374C30.6671 84.577 30.563 84.5269 30.4546 84.4878H34.1227C34.9429 84.4878 35.6214 84.6756 36.158 85.0512C36.6946 85.4269 36.9629 85.8868 36.9629 86.4311C36.9629 87.0138 36.8477 87.4429 36.6179 87.7188C36.5028 87.8569 36.223 88.0523 35.7784 88.3053L35.6176 88.3973L35.7899 88.4663C36.4951 88.7499 36.9973 89.045 37.2962 89.3517C37.6796 89.7502 37.8712 90.283 37.8712 90.95ZM35.3875 86.6495C35.3108 86.1666 35.1001 85.814 34.7551 85.5916C34.4868 85.4155 34.1495 85.3273 33.7432 85.3273C33.4519 85.3273 33.2221 85.3656 33.0534 85.4422L32.6738 85.6033V88.2594L33.2374 88.2709C33.7663 88.2709 34.2377 88.1634 34.6517 87.9489C35.1575 87.6882 35.4105 87.3279 35.4105 86.868C35.4105 86.8296 35.4028 86.7569 35.3875 86.6495ZM36.2614 91.0074C36.2614 90.3943 36.0084 89.9189 35.5025 89.5816C35.0578 89.2827 34.5136 89.1331 33.8697 89.1331C33.7011 89.1331 33.5286 89.1448 33.3523 89.1677L32.6853 89.2712V92.6747L32.9153 92.7781C33.2833 92.9468 33.6934 93.0311 34.1457 93.0311C34.736 93.0311 35.2227 92.8741 35.6059 92.5597C36.0429 92.1995 36.2614 91.682 36.2614 91.0074ZM52.681 93.8936H49.5765C49.7375 93.8783 49.91 93.771 50.0939 93.5715C50.1553 93.5027 50.1859 93.4184 50.1859 93.3187C50.1859 93.2266 50.1591 93.1078 50.1054 92.9623L49.0707 90.375H45.5176L44.6552 92.7208C44.5944 92.8865 44.5632 93.0617 44.5632 93.2382C44.5632 93.4222 44.6055 93.5562 44.6896 93.6406C44.8353 93.7786 44.9849 93.863 45.1382 93.8936H42.3901C42.4931 93.8464 42.5929 93.7926 42.689 93.7326C42.7733 93.6712 42.8577 93.6023 42.942 93.5256C43.0645 93.403 43.169 93.2636 43.2524 93.1116C43.3061 93.012 43.3789 92.851 43.4709 92.6288L46.334 85.4881C46.3646 85.4115 46.3877 85.3464 46.403 85.2927C46.4183 85.2313 46.426 85.1663 46.426 85.0973C46.426 85.0435 46.4145 84.9747 46.3916 84.8904C46.3225 84.668 46.1615 84.5339 45.9085 84.4878H48.2312L51.3589 92.2033C51.4124 92.3567 51.4738 92.5137 51.5429 92.6747C51.6117 92.828 51.7037 92.9852 51.8188 93.1462C51.9314 93.2963 52.0585 93.4349 52.1982 93.5601C52.3284 93.6752 52.4894 93.7863 52.681 93.8936ZM48.7372 89.3632L47.3343 85.7987L45.9085 89.3632H48.7372ZM66.947 84.4878C66.6405 84.6104 66.4181 84.8022 66.2802 85.0628C66.2223 85.1646 66.176 85.2726 66.1422 85.3847C66.1116 85.4996 66.0963 85.6415 66.0963 85.8102V86.0171L66.1077 94.3649C65.8853 94.2961 65.6937 94.2194 65.5327 94.1351C65.3719 94.0584 65.1918 93.9435 64.9923 93.7901C64.861 93.6973 64.738 93.5934 64.6244 93.4796C64.5708 93.426 64.406 93.2227 64.1301 92.8701L59.0937 86.5116L59.1052 92.3873V92.5368C59.1052 92.7208 59.1243 92.8894 59.1627 93.0426C59.2086 93.196 59.3083 93.3761 59.4616 93.5832C59.5001 93.6291 59.5765 93.6905 59.6917 93.7672C59.8066 93.836 59.8909 93.8783 59.9447 93.8936H57.1965C57.3052 93.8506 57.4092 93.7967 57.5069 93.7326C57.6449 93.6406 57.7522 93.5333 57.8289 93.4107C57.9142 93.2776 57.9728 93.1292 58.0014 92.9738C58.0396 92.8051 58.0588 92.6594 58.0588 92.5368V85.9366C58.0588 85.7526 58.0473 85.5878 58.0243 85.4422C58.009 85.2965 57.9668 85.1701 57.8978 85.0628C57.7905 84.9095 57.6908 84.7945 57.5989 84.7179C57.5145 84.6335 57.3881 84.5569 57.2195 84.4878H59.5077C59.523 84.6027 59.5383 84.6756 59.5536 84.7064C59.5997 84.7905 59.6303 84.8443 59.6456 84.8672C59.6993 84.9515 59.7643 85.0474 59.841 85.1548L65.0269 91.6973V85.9941C65.0269 85.7488 65.0116 85.5533 64.9808 85.4076C64.9579 85.2621 64.8927 85.1049 64.7854 84.9362C64.7273 84.8403 64.6535 84.7548 64.567 84.6833C64.4827 84.6142 64.3752 84.5492 64.245 84.4878H66.947ZM74.307 93.8936H71.4669C71.5895 93.8245 71.6853 93.7593 71.7543 93.6981C71.831 93.6367 71.8922 93.5524 71.9383 93.4451C71.9918 93.3379 72.0341 93.2036 72.0647 93.0426C72.1031 92.8818 72.1223 92.7055 72.1223 92.5137V85.9136V85.7641C72.1223 85.5495 72.1108 85.3847 72.0878 85.2698C72.0647 85.1548 72.0073 85.0244 71.9153 84.8787C71.854 84.7791 71.7887 84.7024 71.7197 84.6488C71.6585 84.5951 71.5665 84.5416 71.4438 84.4878H74.307C74.1843 84.5339 74.0846 84.5875 74.008 84.6488C73.9313 84.7024 73.8586 84.7829 73.7896 84.8904C73.6976 85.0282 73.64 85.1587 73.6171 85.2812C73.6018 85.4038 73.5941 85.5801 73.5941 85.8102V92.3987C73.5941 92.6441 73.6018 92.8433 73.6171 92.9967C73.64 93.1424 73.6976 93.3071 73.7896 93.491C73.8431 93.5832 73.9121 93.6635 73.9965 93.7326C74.0941 93.7968 74.1982 93.8508 74.307 93.8936ZM79.9527 93.8936H79.6767C79.5771 93.8936 79.4505 93.8974 79.2973 93.905C78.9218 93.905 78.5729 93.8936 78.2509 93.8706C77.9289 93.8398 77.7029 93.7901 77.5724 93.7211C77.3808 93.6291 77.2736 93.5754 77.2506 93.5601C77.1049 93.4757 76.9439 93.3109 76.7676 93.0657L73.7664 89.0297L76.2272 85.7872C76.2732 85.7182 76.3191 85.6224 76.3652 85.4996C76.4111 85.377 76.4343 85.2621 76.4343 85.1548C76.4343 85.0397 76.4149 84.9477 76.3767 84.8787C76.2924 84.6871 76.139 84.5569 75.9168 84.4878H78.6303L75.2844 88.7308L78.228 92.6056C78.32 92.7284 78.4119 92.8395 78.5039 92.9391C78.6211 93.0454 78.7439 93.1453 78.8718 93.2382C79.1401 93.4375 79.3317 93.5715 79.4467 93.6406C79.5618 93.7096 79.7305 93.7939 79.9527 93.8936Z" fill="white"/>
<path d="M57.9539 15.2988L39.8828 33.9436H48.7749L67.0372 15.2988H57.9539ZM59.0056 26.0076L40.9346 44.6523H49.8267L68.0889 26.0076H59.0056ZM61.3004 35.3778L43.2293 54.0225H52.1214L70.3837 35.3778H61.3004Z" fill="#F2A809"/>
</g>
<defs>
<clipPath id="clip0_195_22813">
<rect width="109" height="109" fill="white" transform="translate(0.679688)"/>
</clipPath>
</defs>
</svg>
