<svg width="52" height="52" viewBox="0 0 52 52" fill="none" xmlns="http://www.w3.org/2000/svg">
<path d="M25.9764 27.979C28.5221 27.979 30.5935 25.9082 30.5935 23.3619V20.3785C30.5935 20.0634 30.3383 19.8077 30.0227 19.8077H29.0398V16.5776C29.0398 14.8881 27.6659 13.5137 25.9764 13.5137C24.2869 13.5137 22.9125 14.8881 22.9125 16.5776V19.8077H21.9302C21.6151 19.8077 21.3594 20.0634 21.3594 20.3785V23.3619C21.3599 25.9076 23.4307 27.979 25.9764 27.979ZM24.054 16.5776C24.054 15.5177 24.9165 14.6552 25.9764 14.6552C27.0358 14.6552 27.8982 15.5177 27.8982 16.5776V19.8077H24.054V16.5776ZM22.5015 20.9492H23.4838H28.4696H29.4525V23.3619C29.4525 25.278 27.8937 26.8374 25.977 26.8374C24.0609 26.8374 22.5021 25.2786 22.5021 23.3619L22.5015 20.9492Z" fill="#3D4B5F"/>
<path d="M25.977 24.9535C26.2921 24.9535 26.5478 24.6978 26.5478 24.3828V23.1567C26.5478 22.8416 26.2921 22.5859 25.977 22.5859C25.662 22.5859 25.4062 22.8416 25.4062 23.1567V24.3828C25.4062 24.6978 25.662 24.9535 25.977 24.9535Z" fill="#3D4B5F"/>
<path d="M51.0886 16.8682H36.7169V11.5942C36.7169 11.29 36.4783 11.0388 36.1741 11.024C32.9377 10.8653 29.6369 9.23518 26.3635 6.17865C26.1437 5.97431 25.8041 5.97431 25.5844 6.17865C22.3109 9.23518 19.0101 10.8653 15.7738 11.024C15.4696 11.0388 15.231 11.29 15.231 11.5942V16.8682H0.859844C0.544773 16.8682 0.289062 17.1239 0.289062 17.439V24.4162V31.3935V38.3707V45.3479C0.289062 45.6636 0.544773 45.9187 0.859844 45.9187H9.23149H25.9742H42.7169H51.0886C51.4042 45.9187 51.6594 45.6636 51.6594 45.3479V38.3707V31.3935V24.4162V17.439C51.6594 17.1239 51.4042 16.8682 51.0886 16.8682ZM42.7169 37.7999H34.9166V31.9643H42.7169H50.5178V37.7999H42.7169ZM25.9742 37.7999H18.1734V31.9643H20.2504C21.67 33.2485 23.2699 34.2137 24.8886 35.0111C24.8972 35.0151 24.9057 35.0197 24.9143 35.0236C25.1877 35.1583 25.4617 35.2891 25.7356 35.4146C25.8115 35.4494 25.8926 35.4666 25.9736 35.4666C26.0547 35.4666 26.1363 35.4494 26.2117 35.4146C26.4822 35.2902 26.7528 35.1612 27.0227 35.0288C27.0359 35.0225 27.0496 35.0157 27.0633 35.0094C28.6803 34.2126 30.2791 33.2474 31.6969 31.9648H33.7745V37.8005L25.9742 37.7999ZM9.23149 37.7999H1.43062V31.9643H9.23149H17.0324V37.7999H9.23149ZM15.9975 24.987C16.6813 27.422 17.7812 29.313 19.1203 30.8227H17.6031H9.80227V24.987H15.9975ZM8.66071 30.8227H1.43062V24.987H8.66071V30.8227ZM50.5178 24.987V30.8227H43.2877V24.987H50.5178ZM42.1462 30.8227H34.3459H32.8282C34.1672 29.313 35.2671 27.4226 35.9509 24.987H42.1462V30.8227ZM50.5178 18.0098V23.8455H42.7169H36.2317C36.4595 22.7741 36.6113 21.6046 36.6769 20.3283C36.6809 20.2495 36.6855 20.1713 36.6889 20.092C36.7055 19.6999 36.7169 19.302 36.7169 18.8894V18.0092H50.5178V18.0098ZM16.3725 12.1256C19.5769 11.822 22.8024 10.2249 25.9742 7.36987C29.1466 10.2243 32.3715 11.822 35.5753 12.1256V17.4396V18.8905C35.5753 19.3363 35.5616 19.7724 35.5399 20.2022C35.5365 20.2741 35.5337 20.3466 35.5291 20.4179C35.5051 20.8232 35.4714 21.2204 35.4286 21.6097C35.4195 21.6936 35.4087 21.7764 35.3984 21.8591C35.3533 22.2284 35.3014 22.5909 35.2386 22.9442C35.2186 23.0572 35.1946 23.1651 35.1729 23.2758C35.129 23.5024 35.0793 23.7239 35.028 23.9436C33.968 28.4077 31.4845 31.0265 28.6672 32.8113C28.5884 32.861 28.5079 32.91 28.4269 32.9597C28.3076 33.0328 28.1883 33.1047 28.0678 33.1755C27.9063 33.2696 27.7425 33.3632 27.5741 33.4557C27.5296 33.4803 27.4856 33.5048 27.4411 33.5288C27.2271 33.6446 27.0085 33.7599 26.7824 33.8741C26.7596 33.8855 26.7368 33.8969 26.714 33.9083C26.4742 34.0288 26.2282 34.1486 25.9736 34.2679C25.7202 34.1492 25.4754 34.0299 25.2362 33.9095C25.2122 33.8975 25.1877 33.8855 25.1637 33.8735C24.9388 33.7599 24.7219 33.6458 24.509 33.5305C24.4622 33.5048 24.4154 33.4791 24.3686 33.4534C24.2042 33.3632 24.045 33.2719 23.888 33.1806C23.7579 33.1047 23.6277 33.0265 23.4987 32.9471C23.4262 32.9026 23.3538 32.8587 23.283 32.8141C20.4679 31.0322 17.9867 28.418 16.9239 23.9648C16.8691 23.7336 16.8172 23.4996 16.7709 23.2604C16.7504 23.1565 16.7281 23.0555 16.7093 22.9499C16.6465 22.5943 16.5934 22.229 16.5483 21.8569C16.5386 21.7758 16.5284 21.6953 16.5192 21.6131C16.4764 21.2233 16.4422 20.8255 16.4182 20.4191C16.4142 20.3477 16.4114 20.2747 16.4074 20.2027C16.3857 19.7729 16.372 19.3374 16.372 18.8917V17.4407L16.3725 12.1256ZM1.43062 18.0098H15.231V18.8899C15.231 19.302 15.2424 19.7005 15.2589 20.0926C15.2624 20.1713 15.2664 20.2495 15.2709 20.3283C15.3366 21.6046 15.4884 22.7741 15.7161 23.846H9.23149H1.43062V18.0098ZM1.43062 38.9415H8.66071V44.7772H1.43062V38.9415ZM9.80227 38.9415H17.6031H25.4034V44.7772H9.80227V38.9415ZM26.545 38.9415H34.3459H42.1462V44.7772H26.545V38.9415ZM50.5178 44.7766H43.2877V38.9415H50.5178V44.7766Z" fill="#3D4B5F"/>
</svg>
