<svg width="52" height="52" viewBox="0 0 52 52" fill="none" xmlns="http://www.w3.org/2000/svg">
<path d="M26.5468 45.2093V40.6294C26.5468 40.3137 26.2911 40.0586 25.976 40.0586C25.6609 40.0586 25.4052 40.3137 25.4052 40.6294V45.2093C23.8852 45.4804 22.7266 46.8087 22.7266 48.4051C22.7266 50.1968 24.1843 51.6546 25.976 51.6546C27.7683 51.6546 29.2255 50.1968 29.2255 48.4051C29.2255 46.8087 28.0674 45.4799 26.5468 45.2093ZM25.976 50.513C24.8139 50.513 23.8681 49.5672 23.8681 48.4051C23.8681 47.243 24.8139 46.2978 25.976 46.2978C27.1381 46.2978 28.0839 47.243 28.0839 48.4051C28.0839 49.5672 27.1381 50.513 25.976 50.513Z" fill="#263D82"/>
<path d="M18.7079 37.7988C18.3929 37.7988 18.1371 38.054 18.1371 38.3696V42.5369H14.7421C14.471 41.0163 13.1428 39.8582 11.5463 39.8582C9.75465 39.8582 8.29688 41.316 8.29688 43.1077C8.29688 44.8993 9.75465 46.3571 11.5463 46.3571C13.1428 46.3571 14.4716 45.1984 14.7421 43.6784H18.7079C19.023 43.6784 19.2787 43.4233 19.2787 43.1077V38.3696C19.2787 38.054 19.0236 37.7988 18.7079 37.7988ZM11.5469 45.2156C10.3848 45.2156 9.43901 44.2698 9.43901 43.1077C9.43901 41.9456 10.3848 40.9998 11.5469 40.9998C12.709 40.9998 13.6548 41.9456 13.6548 43.1077C13.6548 44.2698 12.709 45.2156 11.5469 45.2156Z" fill="#263D82"/>
<path d="M40.3964 39.8582C38.7994 39.8582 37.4712 41.0169 37.2001 42.5369H33.8056V38.3696C33.8056 38.054 33.5505 37.7988 33.2348 37.7988C32.9192 37.7988 32.6641 38.054 32.6641 38.3696V43.1077C32.6641 43.4233 32.9192 43.6784 33.2348 43.6784H37.2001C37.4712 45.199 38.7994 46.3571 40.3964 46.3571C42.1887 46.3571 43.6459 44.8993 43.6459 43.1077C43.6459 41.316 42.1887 39.8582 40.3964 39.8582ZM40.3964 45.2161C39.2343 45.2161 38.2885 44.2703 38.2885 43.1082C38.2885 41.9461 39.2343 41.0003 40.3964 41.0003C41.5585 41.0003 42.5043 41.9461 42.5043 43.1082C42.5043 44.2703 41.5591 45.2161 40.3964 45.2161Z" fill="#263D82"/>
<path d="M39.7893 12.0638H39.6146C39.1786 5.51922 33.65 0.285156 27.0375 0.285156H24.9102C18.2982 0.285156 12.7696 5.51922 12.333 12.0638H12.1589C6.60863 12.0638 2.09375 16.5792 2.09375 22.129C2.09375 27.6787 6.6092 32.1947 12.1589 32.1947H18.139V34.6102C18.139 34.9259 18.3947 35.181 18.7098 35.181C19.0248 35.181 19.2805 34.9259 19.2805 34.6102V32.1947H25.4033V36.7809C25.4033 37.0965 25.659 37.3517 25.9741 37.3517C26.2892 37.3517 26.5449 37.0965 26.5449 36.7809V32.1947H32.6682V34.6102C32.6682 34.9259 32.9234 35.181 33.239 35.181C33.5546 35.181 33.8098 34.9259 33.8098 34.6102V32.1947H39.7899C45.3401 32.1947 49.8556 27.6792 49.8556 22.129C49.8556 16.5787 45.3396 12.0638 39.7893 12.0638ZM39.7893 31.0531H12.1589C7.2382 31.0531 3.23531 27.0497 3.23531 22.129C3.23531 17.2082 7.23877 13.2054 12.1589 13.2054H12.8787C13.1892 13.2054 13.4426 12.9571 13.4494 12.6471C13.5853 6.46044 18.7269 1.42672 24.9107 1.42672H27.038C33.2219 1.42672 38.3635 6.46044 38.4988 12.6471C38.5056 12.9571 38.759 13.2054 39.0695 13.2054H39.7899C44.7106 13.2054 48.714 17.2088 48.714 22.129C48.7135 27.0502 44.71 31.0531 39.7893 31.0531Z" fill="#263D82"/>
</svg>
