<svg width="114" height="113" viewBox="0 0 114 113" fill="none" xmlns="http://www.w3.org/2000/svg">
<path d="M83.5542 37.4024C83.6174 51.628 72.0722 63.7473 57.2071 63.7665C42.7046 63.7834 30.8012 52.0924 30.8125 37.3753C30.8238 22.4661 42.9645 10.9774 57.2319 11.0079C71.8394 11.0384 83.6253 22.9633 83.5542 37.4024ZM58.2252 26.9872C58.1789 31.2428 61.7463 34.6916 65.9273 34.6904C69.9241 34.6904 73.6226 31.4631 73.6316 26.9759C73.6407 22.4469 69.941 19.2422 65.9657 19.2343C61.857 19.2264 58.1766 22.6503 58.2252 26.9872Z" fill="#DB353A"/>
<path d="M108.268 89.0257C108.181 88.9963 108.155 89.0155 108.128 89.0607C107.48 90.1591 106.465 90.7557 105.263 90.9907C103.138 91.4122 101.158 91.0043 99.4088 89.7025C97.9669 88.6291 97.1578 87.1476 96.9228 85.3826C96.6622 83.5974 96.9425 81.7751 97.7273 80.1507C98.872 77.7777 100.77 76.3482 103.33 75.7945C104.367 75.5559 105.438 75.5024 106.494 75.6363C109.128 75.9968 110.92 77.4206 111.893 79.8783C112.233 80.7098 112.41 81.5992 112.413 82.4977C112.394 85.143 112.507 87.7849 112.553 90.4291C112.575 91.4729 112.397 92.5112 112.029 93.4881C111.181 95.73 109.621 97.2577 107.35 98.0148C105.522 98.6317 103.55 98.6829 101.691 98.1617C101.005 97.9818 100.357 97.6789 99.7783 97.2679C98.8008 96.565 98.2505 95.6441 98.3093 94.4045C98.3296 93.9683 98.3093 93.5299 98.3149 93.0926C98.3149 93.0067 98.3342 92.9163 98.4223 92.888C98.4639 92.8791 98.5072 92.8821 98.5472 92.8967C98.5872 92.9113 98.6222 92.9369 98.6483 92.9705C99.0434 93.3426 99.4964 93.6479 99.9896 93.8745C100.67 94.1903 101.39 94.4119 102.13 94.5333C102.884 94.6599 103.651 94.7023 104.415 94.6599C105.04 94.6396 105.657 94.5119 106.24 94.2824C107.352 93.8304 108.016 93.0022 108.249 91.8371C108.374 91.2429 108.403 90.6327 108.337 90.0291C108.301 89.6935 108.291 89.3489 108.268 89.0257ZM108.188 83.3757C108.188 82.3519 108.075 81.7146 107.793 81.0908C107.237 79.8399 106.172 79.2625 104.84 79.3303C103.507 79.3981 102.467 80.0603 101.816 81.2388C101.457 81.8639 101.243 82.5609 101.188 83.2793C101.133 83.9976 101.238 84.7192 101.497 85.3916C102.036 86.8606 103.418 87.8866 105.403 87.4731C106.646 87.2132 107.437 86.4041 107.882 85.239C108.099 84.6436 108.203 84.0127 108.188 83.3791V83.3757Z" fill="#686767"/>
<path d="M16.3593 76.8765C16.2033 76.8629 16.1333 76.7465 16.0463 76.664C14.9004 75.6063 13.5252 75.082 11.9975 74.8944C11.0873 74.7827 10.1669 74.7846 9.25721 74.9001C8.634 74.9591 8.02612 75.1278 7.46164 75.3984C6.53617 75.873 6.08643 76.6256 6.11694 77.672C6.12001 77.9121 6.17503 78.1488 6.27822 78.3657C6.3814 78.5826 6.53031 78.7746 6.71471 78.9285C7.00196 79.1702 7.32431 79.3669 7.67069 79.5116C8.45678 79.8437 9.27149 80.1036 10.1047 80.2879C10.8121 80.4574 11.5263 80.6043 12.228 80.7976C13.1769 81.0488 14.0724 81.4699 14.8711 82.0406C16.0191 82.8745 16.7921 83.974 16.9616 85.3888C17.3424 88.5189 16.096 91.5235 12.6529 92.7824C11.1025 93.3474 9.48886 93.483 7.85262 93.3541C7.0415 93.3085 6.23894 93.1643 5.46267 92.9247C4.92625 92.7578 4.41582 92.5166 3.94621 92.2083C2.86932 91.4761 2.30884 90.4602 2.28172 89.1573C2.26929 88.5742 2.28172 87.9911 2.28172 87.4081C2.28172 87.2781 2.38794 87.2227 2.48851 87.2951C2.62185 87.3945 2.74728 87.5052 2.87836 87.6069C4.86942 89.1528 7.11925 89.7539 9.61655 89.4624C10.1566 89.4132 10.6867 89.2864 11.1906 89.0861C11.7466 88.8511 12.2009 88.4985 12.4551 87.938C12.7613 87.26 12.7681 86.5628 12.5986 85.86C12.5127 85.5051 12.2596 85.2441 11.9726 85.026C11.6505 84.795 11.2975 84.6105 10.924 84.478C9.96662 84.1311 8.9845 83.8569 7.98596 83.6576C7.23085 83.507 6.48792 83.3008 5.76325 83.0406C4.95797 82.7526 4.20779 82.3291 3.54506 81.7886C2.24782 80.697 1.69864 79.2822 1.83198 77.6313C2.0738 74.7261 3.68857 72.8096 6.30339 71.6739C7.22443 71.2788 8.21141 71.0599 9.21314 71.0287C10.4222 70.9824 11.628 71.0038 12.8133 71.292C13.4643 71.4376 14.089 71.6827 14.6654 72.0186C15.2666 72.3605 15.7581 72.8665 16.0824 73.4774C16.2672 73.8058 16.3757 74.1715 16.3999 74.5475C16.4192 75.2752 16.4248 76.0041 16.4305 76.7329C16.4305 76.7781 16.3886 76.8301 16.3593 76.8765Z" fill="#686767"/>
<path d="M37.9467 86.3011C37.1772 86.3011 36.4065 86.3011 35.6358 86.3011C35.4008 86.3011 35.3386 86.3825 35.3884 86.6096C35.5111 87.1821 35.7726 87.7157 36.15 88.1633C36.8348 88.9781 37.7252 89.4369 38.749 89.6662C39.5942 89.8561 40.444 89.8233 41.2983 89.7521C41.9421 89.7003 42.5778 89.5752 43.1933 89.3792C43.9311 89.1511 44.6172 88.7807 45.2126 88.2888C45.3414 88.1758 45.4691 88.2368 45.4691 88.3961C45.4691 88.9995 45.5052 89.6018 45.4058 90.2041C45.3437 90.6276 45.1939 91.0334 44.9661 91.3957C44.7383 91.758 44.4373 92.0688 44.0826 92.3082C43.4774 92.7191 42.7918 92.9968 42.0712 93.1229C40.7999 93.3715 39.5208 93.4766 38.2224 93.306C35.1183 92.9003 32.1746 90.6606 31.2537 87.2277C30.9681 86.1604 30.8702 85.0515 30.9644 83.9507C31.0278 82.9741 31.2142 82.0093 31.5192 81.0794C32.1374 79.2917 33.1826 77.8261 34.7962 76.8023C35.8709 76.1243 37.0506 75.7616 38.3128 75.6192C39.6195 75.4527 40.9468 75.6421 42.1548 76.1673C44.173 77.0577 45.4657 78.573 45.9414 80.7426C46.1202 81.4945 46.146 82.2746 46.0171 83.0365C45.851 83.9405 45.4058 84.6615 44.6295 85.1677C44.0622 85.5194 43.4376 85.7692 42.7842 85.9056C41.7883 86.1289 40.7728 86.253 39.7524 86.2762C39.149 86.2943 38.5456 86.2762 37.9444 86.2762L37.9467 86.3011ZM37.4404 83.2976C38.2834 83.2885 39.1976 83.2976 40.1061 83.1676C40.5394 83.1176 40.964 83.0093 41.3683 82.8456C41.5939 82.7589 41.787 82.6043 41.9209 82.4031C42.0547 82.2018 42.1226 81.9639 42.1153 81.7224C42.1288 80.7562 41.7446 79.9053 40.7593 79.4624C39.8787 79.0662 38.8884 78.9864 37.9557 79.2364C36.8314 79.5279 36.0957 80.285 35.6392 81.3314C35.4189 81.8342 35.3556 82.371 35.3081 82.9134C35.2788 83.2399 35.3138 83.2874 35.6257 83.2908C36.2065 83.3021 36.7884 83.2976 37.4404 83.2976Z" fill="#686767"/>
<path d="M94.2131 87.4041C94.2131 88.9861 94.2131 90.5681 94.2131 92.1501C94.2131 92.2755 94.2131 92.4009 94.2131 92.5252C94.2029 92.9964 94.195 93.0066 93.7148 93.0111C93.2153 93.0111 92.7147 93.0292 92.2232 92.9128C91.1474 92.6586 90.3892 92.054 90.0683 90.9681C89.9722 90.6438 89.9847 90.3082 89.9847 89.9748C89.9847 87.8708 89.9847 85.7671 89.9847 83.6638C89.9924 83.0173 89.9218 82.3723 89.7745 81.7428C89.6912 81.3983 89.5596 81.0673 89.3835 80.7597C89.0755 80.2078 88.5782 79.786 87.9834 79.572C87.2575 79.2938 86.4632 79.2476 85.7099 79.4398C85.056 79.6018 84.4879 80.0056 84.12 80.5698C83.796 81.0573 83.5891 81.613 83.5154 82.1936C83.4527 82.6475 83.421 83.1051 83.4205 83.5632C83.4258 86.4801 83.4258 89.3963 83.4205 92.3117C83.4205 93.0755 83.4702 93.0111 82.7041 93.0111C82.288 93.0269 81.8715 92.9997 81.4611 92.9298C80.174 92.6676 79.3649 91.7998 79.2271 90.5048C79.2047 90.2769 79.1941 90.0479 79.1954 89.8189C79.1954 87.589 79.1954 85.3603 79.1954 83.1327C79.1954 82.2287 79.2802 81.3428 79.5627 80.4828C80.2949 78.2556 81.756 76.7324 83.9945 76.0058C85.6771 75.46 87.3845 75.382 89.0999 75.8747C91.7927 76.651 93.3939 78.4567 94.0108 81.1665C94.1543 81.8622 94.2218 82.5715 94.212 83.2818C94.2188 84.6537 94.2131 86.0289 94.2131 87.4041Z" fill="#676767"/>
<path d="M19.882 81.7677C19.882 80.0377 19.882 78.3088 19.882 76.5799C19.8745 76.2468 19.8927 75.9136 19.9362 75.5833C20.152 74.1945 20.9724 73.2035 22.0832 72.426C22.6279 72.0464 23.2607 72.0543 23.8912 72.1051C23.9442 72.1083 23.9937 72.1323 24.0291 72.1719C24.0644 72.2115 24.0827 72.2634 24.0799 72.3164C24.0878 72.4622 24.0878 72.608 24.0878 72.7537C24.0878 73.5866 24.0878 74.4205 24.0878 75.2533C24.0878 75.3991 24.0878 75.5448 24.0878 75.6906C24.0837 75.7219 24.0866 75.7537 24.0963 75.7837C24.106 75.8137 24.1223 75.8411 24.1439 75.8641C24.1656 75.887 24.192 75.9048 24.2214 75.9163C24.2508 75.9277 24.2824 75.9324 24.3138 75.9302C24.4811 75.9302 24.6472 75.9369 24.8133 75.9369H29.1886C29.3141 75.9369 29.4384 75.9369 29.5638 75.9369C29.9695 75.946 29.9785 75.9528 29.9853 76.3652C29.9853 76.72 29.9853 77.0737 29.9853 77.4274C29.9774 78.632 29.2485 79.4806 28.0552 79.6535C27.7454 79.6937 27.4332 79.7129 27.1207 79.7111C26.3501 79.7191 25.5794 79.7111 24.8088 79.7111C24.663 79.7111 24.5172 79.7111 24.3714 79.7111C24.1692 79.7224 24.1036 79.7823 24.0912 79.9665C24.0822 80.0908 24.0844 80.2162 24.0844 80.3417C24.0844 82.3199 24.0844 84.2989 24.0844 86.2787C24.0683 86.758 24.1189 87.2371 24.2347 87.7025C24.5263 88.7195 25.1511 89.2845 26.2427 89.3839C27.41 89.4834 28.575 89.4223 29.6677 88.9071C29.8994 88.7941 29.9785 88.8472 29.9819 89.0901C29.9819 89.5421 29.9988 90.0077 29.9819 90.4642C29.9288 91.5648 29.3988 92.349 28.3863 92.8022C28.0063 92.9749 27.6005 93.0841 27.1851 93.1253C26.0167 93.2383 24.854 93.1931 23.7206 92.8474C21.8289 92.2722 20.6413 91.0134 20.1373 89.1082C19.9586 88.422 19.8705 87.7154 19.8752 87.0064C19.8752 85.2572 19.8752 83.5076 19.8752 81.7576L19.882 81.7677Z" fill="#686868"/>
<path d="M60.1329 79.589C60.1329 76.6736 60.1329 73.759 60.1329 70.8451C60.1329 70.2462 60.1137 70.2699 60.716 70.2722C61.029 70.2722 61.3409 70.2722 61.6527 70.2789C62.0073 70.2883 62.3577 70.3579 62.6889 70.4846C63.5421 70.792 64.0528 71.4033 64.2709 72.2745C64.3515 72.6406 64.3871 73.0151 64.3772 73.3898C64.3772 77.9279 64.3772 82.466 64.3772 87.0041C64.3772 87.2956 64.3772 87.5883 64.3964 87.8776C64.4676 88.7544 64.9241 89.3025 65.7648 89.5274C66.127 89.6246 66.5005 89.6733 66.8756 89.672C67.2925 89.672 67.7084 89.672 68.1254 89.6788C68.2643 89.6788 68.3728 89.733 68.3773 89.8889C68.3932 90.4539 68.4169 91.0189 68.2643 91.5636C68.1886 91.8791 68.0341 92.1703 67.8154 92.41C67.5966 92.6497 67.3207 92.8301 67.0134 92.9343C66.7225 93.0424 66.4185 93.1112 66.1094 93.1388C65.174 93.2245 64.2309 93.1267 63.333 92.8507C61.6211 92.3083 60.647 91.115 60.282 89.3838C60.1798 88.8519 60.1336 88.3107 60.1442 87.7691C60.1374 85.0428 60.1336 82.3161 60.1329 79.589Z" fill="#686868"/>
<path d="M52.8367 87.5756C52.8367 89.202 52.8367 90.8274 52.8367 92.4515C52.8367 93.0165 52.83 93.0165 52.2932 93.0165C51.7565 93.0165 51.2095 93.0278 50.6762 92.9035C49.7168 92.6888 48.9992 92.1849 48.6941 91.2085C48.5967 90.8892 48.5483 90.557 48.5506 90.2232C48.5506 87.5982 48.5382 84.9732 48.5585 82.3482C48.5492 81.2398 48.7805 80.1425 49.2365 79.1322C50.0942 77.2903 51.5372 76.2281 53.5306 75.897C54.3525 75.7445 55.1959 75.748 56.0166 75.9072C56.4057 75.9826 56.7786 76.1256 57.1183 76.3298C57.5001 76.5493 57.8178 76.8648 58.04 77.245C58.2622 77.6251 58.3812 78.0568 58.385 78.4972C58.4009 78.913 58.393 79.33 58.385 79.7469C58.385 80.0498 58.3037 80.0972 57.9952 80.0001C57.8562 79.9571 57.7206 79.9017 57.5816 79.8577C56.7845 79.6048 55.9415 79.5308 55.1126 79.6407C54.1611 79.7673 53.5046 80.2803 53.152 81.1719C52.993 81.5581 52.9006 81.9684 52.8785 82.3855C52.8582 82.8635 52.8413 83.3426 52.8401 83.8217C52.8333 85.0726 52.8367 86.3224 52.8367 87.5756Z" fill="#686868"/>
<path d="M70.0172 82.6288C70.0172 80.7108 70.0172 78.7939 70.0172 76.8782C70.0172 76.3234 70.0172 76.3222 70.5562 76.3132C71.0559 76.2921 71.5564 76.322 72.0501 76.4025C73.1688 76.6285 73.8581 77.2907 74.1281 78.3901C74.2216 78.7977 74.2652 79.2151 74.2581 79.6331C74.2528 82.1334 74.2528 84.6338 74.2581 87.1341C74.2581 87.4041 74.2513 87.6765 74.2773 87.9454C74.3575 88.7646 74.7225 89.3839 75.7158 89.5861C76.1676 89.6605 76.6255 89.69 77.0831 89.6743C77.6402 89.6743 77.6379 89.6686 77.6345 90.2235C77.6508 90.6815 77.6171 91.14 77.534 91.5908C77.3554 92.3818 76.8933 92.8756 76.0966 93.0598C75.8334 93.1214 75.5646 93.1562 75.2943 93.1637C74.6273 93.1853 73.9607 93.1092 73.3157 92.9377C71.7337 92.5038 70.7347 91.4778 70.2805 89.9161C70.0976 89.2739 70.0086 88.6086 70.0161 87.9409C70.0161 86.1702 70.0161 84.3995 70.0161 82.6299L70.0172 82.6288Z" fill="#686868"/>
<path d="M69.641 72.2468C69.6425 71.5956 69.9017 70.9715 70.3621 70.511C70.8224 70.0504 71.4464 69.7909 72.0976 69.7891C73.4672 69.7891 74.6424 70.9428 74.5994 72.2852C74.5906 72.9387 74.3263 73.5627 73.8632 74.0237C73.4 74.4848 72.7748 74.7462 72.1213 74.752C71.7929 74.7543 71.4672 74.6909 71.1636 74.5655C70.86 74.4401 70.5846 74.2553 70.3535 74.0219C70.1224 73.7884 69.9403 73.5111 69.8179 73.2063C69.6956 72.9015 69.6354 72.5752 69.641 72.2468Z" fill="#686868"/>
<path d="M69.5571 98.8837C69.6791 98.7707 69.7831 98.6735 69.8961 98.5899C70.6181 98.0509 71.773 98.3413 71.9301 99.3572C71.9606 99.4998 71.9806 99.6444 71.99 99.7899C71.9967 100.393 71.99 100.998 71.99 101.598C71.99 101.723 71.99 101.864 71.825 101.889C71.7523 101.901 71.6777 101.891 71.611 101.859C71.5443 101.828 71.4885 101.778 71.451 101.714C71.3913 101.603 71.3665 101.477 71.3798 101.352C71.3798 100.894 71.3798 100.435 71.3798 99.9764C71.3867 99.7468 71.346 99.5182 71.26 99.3052C71.1346 99.0148 70.9142 98.8939 70.5515 98.9108C70.2125 98.9266 69.9729 99.086 69.9017 99.3899C69.8544 99.6128 69.8305 99.8401 69.8305 100.068C69.8204 100.569 69.8305 101.068 69.8305 101.569C69.8305 101.691 69.8441 101.832 69.6961 101.886C69.6042 101.908 69.5074 101.894 69.4253 101.847C69.3432 101.801 69.2821 101.724 69.2542 101.634C69.2259 101.492 69.2123 101.347 69.2135 101.201C69.2079 100.826 69.2135 100.451 69.2079 100.071C69.2062 99.8634 69.1827 99.6562 69.1378 99.4532C69.1032 99.2882 69.0097 99.1414 68.8747 99.0404C68.7397 98.9393 68.5726 98.8908 68.4045 98.904C68.0508 98.9108 67.8485 99.0747 67.7265 99.4396C67.667 99.6605 67.643 99.8893 67.6553 100.118C67.6553 100.639 67.6553 101.16 67.6462 101.68C67.6467 101.716 67.6378 101.752 67.6205 101.783C67.6031 101.815 67.5778 101.841 67.5471 101.86C67.5164 101.879 67.4814 101.889 67.4455 101.89C67.4096 101.891 67.374 101.883 67.3423 101.866C67.1072 101.78 67.044 101.591 67.0428 101.371C67.0428 100.828 67.0304 100.287 67.0507 99.7459C67.0621 99.538 67.1099 99.3338 67.192 99.1425C67.3331 98.8129 67.5971 98.5513 67.9278 98.4132C68.2586 98.275 68.6302 98.2711 68.9638 98.4023C69.2056 98.5097 69.3672 98.7018 69.5571 98.8837Z" fill="#706E6E"/>
<path d="M82.882 99.5743C82.9125 99.6873 83.0153 99.719 83.0944 99.7766C83.7724 100.265 83.5566 101.215 83.0368 101.615C82.9224 101.705 82.7931 101.774 82.6548 101.82C82.1136 101.979 81.5393 101.99 80.9926 101.85C80.6355 101.767 80.4378 101.496 80.3948 101.128C80.3848 101.024 80.3811 100.92 80.3835 100.816C80.3835 99.8998 80.3835 98.9834 80.3835 98.0669C80.3835 97.5742 80.3892 97.5697 80.8909 97.4726C81.3833 97.3791 81.888 97.3695 82.3836 97.4443C82.9904 97.5324 83.4775 97.9584 83.4164 98.7031C83.4072 98.9342 83.3098 99.153 83.1441 99.3145C83.0605 99.3992 82.9249 99.4399 82.882 99.5743ZM80.9915 100.478C80.9915 100.582 80.9915 100.685 80.9915 100.789C80.9892 100.831 80.9892 100.872 80.9915 100.913C81.0186 101.17 81.118 101.316 81.3497 101.357C81.7156 101.44 82.0973 101.42 82.4526 101.3C82.7916 101.17 82.926 100.913 82.8921 100.5C82.8639 100.161 82.7147 99.971 82.3678 99.9043C82.1235 99.8603 81.8759 99.8376 81.6277 99.8365C80.9621 99.8286 80.9881 99.806 80.9915 100.481V100.478ZM81.6898 99.3483C81.917 99.3372 82.1433 99.3134 82.3678 99.2772C82.6526 99.2173 82.8051 98.9947 82.8198 98.6862C82.8311 98.3596 82.7068 98.1539 82.4379 98.0443C82.1841 97.9559 81.9147 97.9216 81.6469 97.9438C81.0299 97.963 80.9904 98.0014 80.9915 98.6218C80.9847 99.3811 80.9316 99.3269 81.6898 99.3461V99.3483Z" fill="#737070"/>
<path d="M40.2025 99.7719C40.1856 100.063 40.1317 100.351 40.0421 100.628C39.7291 101.493 39.0432 101.984 38.1482 101.966C37.7289 101.965 37.3217 101.825 36.9894 101.57C36.657 101.314 36.4178 100.956 36.3086 100.552C36.1231 99.9507 36.1382 99.3058 36.3515 98.7142C36.6713 97.8046 37.3685 97.3514 38.3731 97.3978C39.2127 97.4362 39.8737 97.9842 40.1031 98.8498C40.1847 99.15 40.2183 99.4612 40.2025 99.7719ZM36.7854 99.6159C36.7763 99.8864 36.8146 100.156 36.8984 100.414C37.0758 101.052 37.5685 101.41 38.2341 101.408C38.8556 101.408 39.3234 101.042 39.5053 100.418C39.641 99.938 39.641 99.4295 39.5053 98.9492C39.3336 98.2961 38.8759 97.9447 38.19 97.9322C37.5425 97.9322 37.0781 98.2599 36.8905 98.8814C36.8099 99.1176 36.7743 99.3667 36.7854 99.6159Z" fill="#706E6E"/>
<path d="M47.4712 101.113C47.5785 101.475 47.4237 101.67 47.1604 101.807C46.2847 102.259 45.1535 101.839 44.8292 100.914C44.7146 100.61 44.6727 100.283 44.7068 99.9603C44.741 99.6372 44.8502 99.3265 45.0258 99.0531C45.2257 98.7182 45.5491 98.4753 45.9264 98.3766C46.3037 98.2778 46.7046 98.3313 47.0429 98.5254C47.2546 98.6413 47.4256 98.8194 47.5329 99.0356C47.6402 99.2519 47.6786 99.4958 47.6429 99.7345C47.6338 99.8493 47.5935 99.9594 47.5264 100.053C47.4593 100.147 47.3679 100.22 47.2621 100.266C47.0324 100.367 46.7834 100.418 46.5321 100.415C46.1999 100.415 45.8666 100.415 45.5332 100.428C45.5077 100.43 45.483 100.437 45.4609 100.45C45.4387 100.463 45.4198 100.48 45.4056 100.502C45.3914 100.523 45.3823 100.547 45.3789 100.572C45.3756 100.598 45.3781 100.623 45.3863 100.648C45.4993 101.08 45.8575 101.364 46.3468 101.402C46.6655 101.427 46.8813 101.373 47.4712 101.113ZM46.1773 99.9221C46.2768 99.9153 46.5276 99.9119 46.7717 99.8746C46.9853 99.8418 47.0745 99.678 47.0463 99.461C47.0382 99.3458 46.996 99.2357 46.9249 99.1447C46.8538 99.0537 46.7572 98.986 46.6474 98.9503C46.1491 98.783 45.549 98.939 45.3728 99.591C45.314 99.8079 45.3784 99.9119 45.5931 99.9209C45.7378 99.9277 45.8813 99.9221 46.1773 99.9221Z" fill="#737070"/>
<path d="M75.5869 101.069C75.6389 101.557 75.4242 101.771 75.1044 101.867C73.9213 102.218 73.0162 101.626 72.8162 100.588C72.7091 100.071 72.805 99.533 73.084 99.085C73.484 98.4319 74.2502 98.1573 74.9236 98.4273C75.1316 98.5005 75.3162 98.6281 75.4581 98.7968C75.6 98.9656 75.694 99.1693 75.7305 99.3867C75.7983 99.7562 75.6932 100.215 75.1451 100.337C74.9835 100.374 74.8191 100.399 74.6536 100.411C74.4038 100.424 74.153 100.41 73.9044 100.423C73.7654 100.423 73.5823 100.363 73.5044 100.507C73.4038 100.694 73.527 100.866 73.6467 101.012C73.9258 101.351 74.2987 101.438 74.7146 101.395C75.0254 101.35 75.323 101.239 75.5869 101.069ZM73.4399 99.8907C73.8903 99.9475 74.3462 99.9452 74.7959 99.8839C75.1191 99.8432 75.2321 99.5856 75.0852 99.2873C75.0457 99.2028 74.9888 99.1276 74.9183 99.0665C74.8479 99.0053 74.7654 98.9597 74.6762 98.9325C74.0196 98.7234 73.4625 99.1438 73.4456 99.8918L73.4399 99.8907Z" fill="#737070"/>
<path d="M84.3896 99.2383C84.3049 98.9908 84.4111 98.8044 84.5908 98.6428C85.0597 98.2224 86.0259 98.2111 86.5118 98.6202C86.6193 98.7038 86.7081 98.809 86.7724 98.9291C86.8366 99.0492 86.8749 99.1815 86.8847 99.3174C86.9084 99.8824 86.9175 100.441 86.8847 101C86.8773 101.189 86.8117 101.372 86.6969 101.523C86.582 101.674 86.4235 101.786 86.2428 101.844C85.813 102.017 85.3324 102.014 84.9049 101.835C84.4868 101.661 84.219 101.365 84.2269 100.888C84.2214 100.678 84.2827 100.471 84.4021 100.298C84.5216 100.125 84.6929 99.9947 84.8914 99.9253C85.0654 99.8584 85.2467 99.8121 85.4315 99.7875C85.6157 99.7592 85.8044 99.7626 85.9965 99.749C86.2462 99.731 86.3287 99.6236 86.279 99.392C86.2615 99.2668 86.2014 99.1516 86.1087 99.0657C86.0161 98.9799 85.8966 98.9287 85.7705 98.9207C85.4193 98.8576 85.0571 98.9121 84.7399 99.0756C84.6269 99.1332 84.549 99.2473 84.3896 99.2383ZM85.8417 100.276C85.4338 100.276 85.2552 100.314 85.0699 100.441C85.0101 100.481 84.9599 100.534 84.923 100.596C84.8862 100.658 84.8635 100.728 84.8566 100.8C84.8496 100.872 84.8587 100.944 84.8831 101.012C84.9075 101.08 84.9466 101.142 84.9976 101.193C85.2699 101.435 85.5908 101.458 85.9253 101.351C86.2372 101.252 86.2982 100.997 86.3027 100.712C86.3027 100.651 86.3027 100.589 86.3027 100.526C86.2914 100.34 86.2361 100.288 86.0293 100.277C85.966 100.273 85.9038 100.276 85.8417 100.276Z" fill="#737070"/>
<path d="M92.1634 99.7277C92.3894 99.7028 92.4402 99.5785 92.5227 99.4915C92.7792 99.2203 93.0323 98.9435 93.2877 98.6711C93.3937 98.5466 93.5357 98.458 93.6942 98.4176C93.8527 98.3771 94.0198 98.3867 94.1725 98.4451C94.1725 98.5898 94.0595 98.6327 93.994 98.7028C93.69 99.0158 93.3759 99.3198 93.0787 99.6384C92.6967 100.047 92.6967 99.9774 93.064 100.448C93.3962 100.874 93.7262 101.302 94.1883 101.602C94.2753 101.659 94.2392 101.816 94.1386 101.858C94.0352 101.909 93.9188 101.928 93.8046 101.911C93.6904 101.895 93.5839 101.844 93.499 101.766C93.3311 101.612 93.1733 101.446 93.0267 101.271C92.8097 101.019 92.6041 100.757 92.3939 100.499C92.3778 100.474 92.3534 100.455 92.3248 100.445C92.2962 100.435 92.2651 100.436 92.2368 100.446C92.1555 100.475 92.169 100.546 92.1679 100.602C92.16 100.976 92.1611 101.35 92.1498 101.724C92.1471 101.755 92.137 101.785 92.1202 101.811C92.1035 101.837 92.0806 101.858 92.0537 101.874C92.0267 101.889 91.9965 101.897 91.9656 101.898C91.9347 101.899 91.904 101.892 91.8763 101.878C91.8156 101.863 91.7602 101.831 91.716 101.787C91.6719 101.742 91.6406 101.687 91.6255 101.626C91.6004 101.504 91.5872 101.38 91.5859 101.255C91.5859 100.03 91.5859 98.803 91.5859 97.575C91.5859 97.5344 91.5859 97.4926 91.5859 97.4507C91.5927 97.3231 91.6006 97.1908 91.769 97.1807C91.842 97.1708 91.9162 97.1861 91.9793 97.2241C92.0424 97.2621 92.0906 97.3206 92.1159 97.3897C92.1509 97.5089 92.1662 97.6329 92.1611 97.757C92.1611 98.2146 92.1611 98.6723 92.1611 99.1299L92.1634 99.7277Z" fill="#706E6E"/>
<path d="M27.8748 100.152C27.8822 100.412 27.8384 100.672 27.7459 100.915C27.5312 101.513 27.1312 101.89 26.4724 101.951C25.8136 102.012 25.1978 101.72 24.9119 101.135C24.7426 100.81 24.6603 100.446 24.6732 100.08C24.6861 99.7133 24.7936 99.3563 24.9854 99.0437C25.2814 98.5284 25.7764 98.3081 26.3538 98.3318C26.6386 98.3317 26.9171 98.4153 27.1548 98.5722C27.3924 98.7291 27.5787 98.9524 27.6906 99.2143C27.8256 99.5079 27.8887 99.8294 27.8748 100.152ZM27.2589 100.183C27.2782 99.9021 27.2171 99.6218 27.0826 99.3748C26.7606 98.7917 25.8848 98.7431 25.5142 99.2844C25.1899 99.7556 25.2215 100.604 25.5843 101.043C25.6889 101.173 25.8263 101.273 25.9824 101.333C26.1385 101.392 26.3076 101.409 26.4724 101.382C26.8352 101.335 27.0589 101.106 27.1776 100.761C27.2378 100.575 27.2654 100.379 27.2589 100.183Z" fill="#706E6E"/>
<path d="M66.2514 100.118C66.2565 100.403 66.205 100.688 66.1 100.954C65.8853 101.528 65.4864 101.884 64.857 101.944C64.2276 102.003 63.7112 101.785 63.353 101.252C62.9179 100.601 62.9665 99.5118 63.4479 98.8948C64.1146 98.0406 65.5249 98.1716 66.0288 99.1344C66.1772 99.4408 66.2534 99.7771 66.2514 100.118ZM65.6379 100.195C65.65 99.8936 65.578 99.5943 65.4299 99.331C65.0909 98.7875 64.2604 98.7525 63.8954 99.2677C63.5632 99.7367 63.5858 100.586 63.9451 101.027C64.3666 101.542 65.2785 101.559 65.5441 100.774C65.6092 100.59 65.641 100.395 65.6379 100.2V100.195Z" fill="#706E6E"/>
<path d="M28.6813 99.537C28.6813 99.2455 28.6813 98.9551 28.6813 98.6635C28.6813 98.5505 28.705 98.4488 28.8248 98.4183C28.8754 98.4052 28.9284 98.4037 28.9797 98.4141C29.031 98.4245 29.0793 98.4464 29.1208 98.4782C29.1628 98.5089 29.1978 98.5481 29.2235 98.5933C29.2492 98.6385 29.265 98.6886 29.27 98.7404C29.2847 98.885 29.2926 99.0296 29.2937 99.1754C29.2937 99.5076 29.2869 99.841 29.2994 100.173C29.3011 100.381 29.3277 100.587 29.3785 100.788C29.4054 100.894 29.4539 100.994 29.5211 101.081C29.5882 101.168 29.6725 101.24 29.7687 101.293C29.865 101.346 29.9711 101.379 30.0804 101.389C30.1898 101.399 30.3001 101.387 30.4045 101.353C30.5172 101.327 30.621 101.272 30.7049 101.192C30.7888 101.113 30.8498 101.012 30.8814 100.901C30.9439 100.68 30.9728 100.452 30.9673 100.223C30.9673 99.7031 30.9673 99.1833 30.9673 98.6635C30.9673 98.5596 30.9673 98.4466 31.1017 98.4183C31.1522 98.4043 31.2053 98.4025 31.2566 98.4131C31.3079 98.4237 31.3559 98.4464 31.3967 98.4793C31.4578 98.5341 31.5044 98.6032 31.5323 98.6805C31.5642 98.779 31.5806 98.882 31.5808 98.9856C31.5808 99.485 31.5808 99.9833 31.5808 100.483C31.5774 100.566 31.5683 100.648 31.5537 100.73C31.4012 101.722 30.4915 102.244 29.5559 101.872C29.3601 101.797 29.1856 101.676 29.0477 101.518C28.9098 101.361 28.8126 101.171 28.7649 100.968C28.7114 100.745 28.68 100.518 28.6711 100.29C28.6553 100.041 28.6711 99.7913 28.6711 99.5415L28.6813 99.537Z" fill="#737070"/>
<path d="M53.083 98.3381C52.9486 98.3381 52.8751 98.2183 52.7712 98.1607C52.5598 98.0358 52.3219 97.9628 52.077 97.9475C51.832 97.9323 51.5869 97.9753 51.3617 98.0729C51.1365 98.1706 50.9377 98.3201 50.7814 98.5094C50.6251 98.6987 50.5159 98.9222 50.4626 99.1618C50.3575 99.6121 50.4073 100.085 50.6038 100.503C50.9202 101.225 51.7146 101.557 52.483 101.325C52.6593 101.262 52.8268 101.177 52.9813 101.072C52.9974 101.063 53.0152 101.059 53.0333 101.059C53.0514 101.059 53.0692 101.063 53.0853 101.072C53.0982 101.087 53.1079 101.105 53.1137 101.125C53.1195 101.144 53.1214 101.164 53.1192 101.185C53.1078 101.299 53.0696 101.409 53.0075 101.506C52.9455 101.603 52.8614 101.684 52.7621 101.743C52.6219 101.833 52.4652 101.895 52.3011 101.925C51.9 102.008 51.4832 101.967 51.106 101.807C50.7288 101.648 50.409 101.378 50.1891 101.032C49.667 100.183 49.6456 99.2997 50.1281 98.4228C50.5134 97.7233 51.2841 97.2634 52.3067 97.416C52.4845 97.4341 52.6536 97.5019 52.7947 97.6116C52.9357 97.7214 53.0431 97.8685 53.1045 98.0364C53.1274 98.0842 53.1374 98.1372 53.1336 98.19C53.1299 98.2429 53.1124 98.2939 53.083 98.3381Z" fill="#737070"/>
<path d="M90.6908 100.691C90.6908 101.003 90.6908 101.315 90.6908 101.627C90.6908 101.752 90.6829 101.885 90.51 101.898C90.4376 101.912 90.3624 101.902 90.2969 101.867C90.2314 101.833 90.1795 101.778 90.1496 101.711C90.1082 101.593 90.0883 101.47 90.0908 101.346C90.0829 100.93 90.0908 100.514 90.084 100.103C90.0839 99.8946 90.0662 99.6871 90.0309 99.4822C89.9631 99.1432 89.7326 98.9601 89.3732 98.9172C88.9529 98.8731 88.6817 98.9951 88.5257 99.2968C88.4339 99.4843 88.3904 99.6917 88.3992 99.9003C88.3992 100.4 88.3992 100.899 88.3992 101.399C88.4015 101.523 88.3947 101.648 88.3788 101.772C88.363 101.863 88.2805 101.894 88.1913 101.896C88.1179 101.9 88.0452 101.88 87.984 101.839C87.9229 101.799 87.8766 101.739 87.8522 101.67C87.8168 101.573 87.7992 101.47 87.8003 101.367C87.7957 100.847 87.7957 100.327 87.8003 99.8076C87.8085 99.5554 87.8789 99.3091 88.0051 99.0906C88.1313 98.872 88.3096 98.6881 88.524 98.5549C88.7383 98.4218 88.9823 98.3437 89.2341 98.3274C89.486 98.3111 89.7379 98.3573 89.9676 98.4618C90.1581 98.5489 90.3216 98.6858 90.4409 98.858C90.5602 99.0302 90.6309 99.2314 90.6456 99.4403C90.692 99.8517 90.692 100.27 90.7123 100.683L90.6908 100.691Z" fill="#706E6E"/>
<path d="M53.7623 99.5904C53.7623 99.2581 53.7623 98.9259 53.7623 98.5937C53.7623 98.4558 53.8832 98.3869 54.0222 98.414C54.1054 98.4267 54.1819 98.4671 54.2393 98.5286C54.2967 98.5901 54.3317 98.6692 54.3386 98.753C54.3563 98.9178 54.3639 99.0834 54.3612 99.2491C54.3691 99.6853 54.3556 100.123 54.3838 100.558C54.4075 100.938 54.594 101.228 54.9804 101.349C55.0784 101.385 55.1828 101.4 55.287 101.394C55.3913 101.387 55.4929 101.359 55.5854 101.31C55.6779 101.262 55.7592 101.194 55.8239 101.112C55.8887 101.03 55.9355 100.936 55.9613 100.834C56.0044 100.653 56.0237 100.466 56.0189 100.28C56.0268 99.761 56.0189 99.2412 56.0257 98.7214C56.0257 98.6016 56.0088 98.4604 56.1726 98.4208C56.2539 98.4018 56.3393 98.412 56.4139 98.4496C56.4885 98.4872 56.5475 98.5498 56.5805 98.6265C56.6077 98.6824 56.6238 98.743 56.628 98.805C56.628 99.4288 56.6608 100.048 56.6178 100.674C56.5602 101.49 56.0314 101.951 55.22 101.968C54.4392 101.984 53.864 101.505 53.7781 100.711C53.754 100.338 53.7514 99.9639 53.7702 99.5904H53.7623Z" fill="#737070"/>
<path d="M43.8825 100.622C43.8825 100.997 43.8893 101.371 43.8825 101.745C43.8825 101.873 43.7695 101.91 43.6565 101.897C43.4565 101.873 43.339 101.777 43.3096 101.597C43.2928 101.474 43.2857 101.349 43.2882 101.224C43.2882 100.85 43.2882 100.475 43.2882 100.1C43.2917 99.9546 43.288 99.809 43.2769 99.6639C43.2102 99.0299 42.6045 98.7045 42.0339 98.996C41.9307 99.0475 41.8421 99.1239 41.7758 99.2181C41.7095 99.3124 41.6677 99.4217 41.6542 99.5362C41.6298 99.7235 41.6192 99.9123 41.6225 100.101C41.6225 100.601 41.6225 101.1 41.6225 101.6C41.6225 101.723 41.6225 101.861 41.4655 101.897C41.3835 101.915 41.2979 101.903 41.2237 101.864C41.1494 101.825 41.0914 101.761 41.0598 101.683C41.0331 101.605 41.0186 101.523 41.0169 101.44C41.0169 100.875 40.9965 100.31 41.0169 99.7543C41.0767 98.4243 42.3039 98.1169 43.1153 98.4412C43.617 98.6412 43.834 99.0604 43.8792 99.5712C43.9097 99.9215 43.8848 100.277 43.8848 100.631L43.8825 100.622Z" fill="#747373"/>
<path d="M57.5225 101.066C57.7615 101.197 58.0158 101.298 58.2796 101.367C58.5239 101.424 58.7797 101.407 59.0141 101.317C59.0934 101.291 59.1625 101.24 59.2117 101.172C59.2609 101.105 59.2878 101.023 59.2887 100.94C59.3031 100.857 59.2885 100.771 59.2474 100.697C59.2062 100.623 59.141 100.566 59.0627 100.534C58.8514 100.452 58.631 100.391 58.414 100.322C58.2324 100.279 58.0541 100.222 57.8807 100.153C57.4807 99.959 57.3428 99.5884 57.4829 99.159C57.5322 98.9994 57.6185 98.8538 57.7349 98.7341C58.1485 98.3126 58.9576 98.1905 59.474 98.481C59.5803 98.5452 59.6748 98.6274 59.7531 98.7239C59.8661 98.855 59.8729 99.0742 59.7904 99.1217C59.6774 99.1883 59.596 99.0968 59.509 99.0561C59.2229 98.9266 58.9056 98.8819 58.5948 98.9273C58.4485 98.9428 58.3106 99.0036 58.2005 99.1013C58.1565 99.1365 58.1219 99.1821 58.1 99.234C58.078 99.2859 58.0693 99.3424 58.0747 99.3985C58.0801 99.4546 58.0994 99.5084 58.1308 99.5552C58.1622 99.602 58.2048 99.6402 58.2547 99.6663C58.3871 99.7247 58.5239 99.7727 58.6638 99.8098C58.8999 99.8867 59.144 99.9454 59.3734 100.036C60.1316 100.344 60.004 101.288 59.5825 101.64C59.161 101.993 58.2875 102.072 57.8163 101.769C57.7457 101.726 57.683 101.67 57.6309 101.605C57.5803 101.538 57.5445 101.461 57.5259 101.379C57.5154 101.275 57.5142 101.171 57.5225 101.066Z" fill="#737070"/>
<path d="M24.2573 97.7081C24.2258 97.8896 24.1582 98.0629 24.0584 98.2177C23.7894 98.7324 23.4779 99.2238 23.1273 99.6867C22.9446 99.9134 22.8546 100.201 22.8753 100.491C22.8911 100.865 22.8753 101.239 22.8753 101.615C22.8753 101.74 22.8629 101.874 22.6956 101.891C22.6128 101.906 22.5275 101.891 22.4542 101.85C22.3809 101.809 22.3241 101.744 22.2933 101.665C22.2692 101.565 22.2574 101.462 22.2583 101.358C22.2583 101.046 22.2447 100.734 22.2583 100.422C22.2683 100.173 22.1916 99.9285 22.0413 99.7297C21.6339 99.1517 21.287 98.5334 21.0063 97.8843C20.96 97.7916 20.9247 97.6938 20.9012 97.5928C20.8971 97.5725 20.8976 97.5516 20.9027 97.5316C20.9079 97.5115 20.9175 97.4929 20.9309 97.4771C20.9443 97.4614 20.9611 97.4488 20.98 97.4405C20.9989 97.4321 21.0195 97.4282 21.0402 97.429C21.1439 97.4119 21.2503 97.4282 21.3441 97.4755C21.4379 97.5228 21.5143 97.5987 21.5622 97.6922C21.6752 97.8923 21.7566 98.1058 21.8685 98.3047C22.0606 98.6494 22.2617 98.9895 22.4685 99.3217C22.5555 99.463 22.6583 99.4562 22.7578 99.3138C23.0618 98.8667 23.3308 98.3967 23.5623 97.9081C23.6213 97.7756 23.6869 97.6463 23.759 97.5205C23.8392 97.3951 23.9703 97.4075 24.098 97.4482C24.1502 97.4668 24.1945 97.5027 24.2235 97.55C24.2524 97.5973 24.2644 97.6531 24.2573 97.7081Z" fill="#747373"/>
<path d="M61.3293 97.7365C61.466 97.9331 61.2547 98.245 61.4988 98.3603C61.6717 98.4428 61.9056 98.3942 62.1124 98.4032C62.1745 98.4032 62.2367 98.4032 62.2988 98.4032C62.4254 98.4032 62.5655 98.4032 62.57 98.5795C62.5802 98.6539 62.5629 98.7294 62.5213 98.7918C62.4796 98.8543 62.4166 98.8993 62.344 98.9185C62.2025 98.949 62.059 98.9694 61.9146 98.9795C61.8118 98.9897 61.7067 98.9795 61.6028 98.9931C61.4988 99.0066 61.4016 99.062 61.4005 99.1818C61.4005 99.7468 61.3802 100.305 61.4084 100.864C61.4242 101.203 61.6468 101.38 61.9881 101.391C62.0914 101.387 62.1944 101.377 62.2966 101.36C62.474 101.345 62.5576 101.451 62.5124 101.616C62.4944 101.687 62.4583 101.751 62.4076 101.804C62.3568 101.857 62.2932 101.895 62.2231 101.915C61.5587 102.141 60.9383 101.789 60.8039 101.106C60.7849 101.004 60.7754 100.9 60.7756 100.797C60.7756 100.049 60.7756 99.3005 60.7756 98.5513C60.76 98.321 60.8287 98.0928 60.9688 97.9094C61.0615 97.7964 61.1655 97.6879 61.3293 97.7365Z" fill="#737070"/>
<path d="M76.5683 100.54C76.5683 100.269 76.5559 99.9994 76.5683 99.7305C76.5763 99.4594 76.6467 99.1937 76.7739 98.9542C76.8956 98.7336 77.0904 98.5624 77.3247 98.47C77.559 98.3776 77.8182 98.3698 78.0577 98.4479C78.1585 98.4774 78.2456 98.5415 78.3037 98.6289C78.3618 98.7164 78.3871 98.8216 78.3752 98.9259C78.3752 99.0073 78.339 99.0886 78.2215 99.0638C78.1014 99.0319 77.979 99.0093 77.8554 98.996C77.4904 98.9745 77.3051 99.109 77.235 99.4604C77.1992 99.6645 77.1815 99.8713 77.1819 100.079C77.1751 100.598 77.1819 101.117 77.1819 101.637C77.1819 101.741 77.1728 101.849 77.0564 101.894C76.9859 101.913 76.9115 101.91 76.8424 101.887C76.7732 101.864 76.7122 101.821 76.6666 101.764C76.5964 101.661 76.5601 101.537 76.5626 101.412C76.5626 101.12 76.5626 100.83 76.5626 100.54H76.5683Z" fill="#747373"/>
<path d="M32.5179 100.529C32.5179 100.259 32.5179 99.9888 32.5179 99.7199C32.5189 99.4269 32.6028 99.1402 32.7597 98.8927C32.8816 98.6968 33.064 98.546 33.2794 98.4632C33.4947 98.3804 33.7313 98.3701 33.953 98.4339C34.0248 98.4476 34.0923 98.4785 34.1495 98.524C34.2068 98.5694 34.2522 98.6281 34.2818 98.695C34.3084 98.7399 34.3247 98.7902 34.3294 98.8422C34.3341 98.8942 34.3271 98.9466 34.3089 98.9956C34.2445 99.1221 34.1338 99.0532 34.0389 99.0317C33.9784 99.0156 33.9168 99.0039 33.8547 98.9967C33.4083 98.9628 33.1981 99.1289 33.1484 99.5832C33.1224 99.8306 33.1326 100.081 33.1303 100.33C33.1303 100.782 33.1303 101.243 33.119 101.7C33.119 101.861 32.9914 101.936 32.806 101.887C32.7235 101.87 32.6497 101.824 32.5975 101.758C32.5452 101.692 32.5178 101.61 32.5201 101.526C32.51 101.193 32.5201 100.861 32.5201 100.529H32.5179Z" fill="#747373"/>
<path d="M58.2192 26.9873C58.1706 22.6504 61.851 19.2265 65.9597 19.2344C69.9351 19.2423 73.6347 22.447 73.6256 26.976C73.6166 31.4632 69.9181 34.6905 65.9213 34.6905C61.7403 34.6905 58.1729 31.2429 58.2192 26.9873Z" fill="#FFFEFE"/>
<path d="M37.4387 83.2988C36.7867 83.2988 36.2047 83.2988 35.6228 83.2988C35.3109 83.2988 35.2759 83.248 35.3052 82.9214C35.3527 82.3824 35.4182 81.8456 35.6363 81.3394C36.0883 80.293 36.8285 79.5314 37.9528 79.2444C38.8855 78.9944 39.8758 79.0743 40.7564 79.4704C41.7429 79.9088 42.1271 80.7597 42.1124 81.7304C42.1198 81.9719 42.0518 82.2098 41.918 82.4111C41.7842 82.6123 41.5911 82.767 41.3654 82.8536C40.9612 83.0149 40.537 83.1209 40.1044 83.1689C39.1958 83.3022 38.2817 83.2898 37.4387 83.2988Z" fill="#FCFCFC"/>
<path d="M80.9846 100.481C80.9846 99.803 80.9552 99.829 81.6253 99.8392C81.8735 99.8402 82.1211 99.8629 82.3654 99.907C82.7123 99.9736 82.8615 100.161 82.8897 100.502C82.9236 100.916 82.7869 101.173 82.4502 101.303C82.0949 101.423 81.7132 101.443 81.3473 101.36C81.1213 101.318 81.0162 101.173 80.9891 100.916C80.9868 100.875 80.9868 100.833 80.9891 100.792C80.9834 100.683 80.9846 100.585 80.9846 100.481Z" fill="#F7F8F8"/>
<path d="M81.6825 99.3461C80.9243 99.328 80.9774 99.3811 80.9774 98.624C80.9774 97.9991 81.0158 97.9607 81.6328 97.946C81.9006 97.9238 82.17 97.9581 82.4238 98.0466C82.6972 98.1596 82.817 98.3618 82.8057 98.6884C82.7933 98.9969 82.6407 99.2195 82.3537 99.2794C82.1314 99.3139 81.9073 99.3362 81.6825 99.3461Z" fill="#F7F8F8"/>
<path d="M36.7824 99.6154C36.7738 99.3657 36.8121 99.1165 36.8954 98.8809C37.083 98.2594 37.5475 97.9261 38.1949 97.9317C38.8809 97.9385 39.3385 98.2899 39.5103 98.9487C39.6459 99.429 39.6459 99.9375 39.5103 100.418C39.3283 101.041 38.8605 101.404 38.239 101.408C37.5734 101.408 37.0808 101.052 36.9033 100.413C36.8168 100.156 36.7759 99.8864 36.7824 99.6154Z" fill="#F7F8F8"/>
<path d="M46.1768 99.9235C45.883 99.9235 45.7372 99.9291 45.5926 99.9235C45.3779 99.9144 45.3135 99.8105 45.3722 99.5935C45.5485 98.9415 46.1485 98.7856 46.6469 98.9528C46.7567 98.9885 46.8533 99.0562 46.9243 99.1472C46.9954 99.2382 47.0377 99.3484 47.0457 99.4636C47.074 99.6805 46.9847 99.8444 46.7712 99.8771C46.5271 99.9133 46.2762 99.9167 46.1768 99.9235Z" fill="#F7F8F8"/>
<path d="M73.4453 99.8927C73.4623 99.1457 74.0103 98.7254 74.6781 98.9344C74.7673 98.9616 74.8498 99.0073 74.9203 99.0684C74.9908 99.1295 75.0476 99.2048 75.0872 99.2892C75.2341 99.5876 75.1211 99.8452 74.7979 99.8859C74.3493 99.9469 73.8946 99.9492 73.4453 99.8927Z" fill="#F7F8F8"/>
<path d="M85.849 100.275C85.9112 100.275 85.9733 100.275 86.0343 100.275C86.2411 100.287 86.2965 100.339 86.3078 100.525C86.3078 100.587 86.3078 100.649 86.3078 100.71C86.3078 100.995 86.2423 101.251 85.9304 101.35C85.5914 101.456 85.275 101.434 85.0026 101.192C84.9516 101.141 84.9125 101.079 84.8881 101.011C84.8638 100.943 84.8547 100.87 84.8616 100.799C84.8685 100.727 84.8912 100.657 84.9281 100.595C84.965 100.533 85.0151 100.48 85.075 100.439C85.2625 100.314 85.4411 100.275 85.849 100.275Z" fill="#F7F8F8"/>
<path d="M27.2656 100.182C27.2726 100.38 27.245 100.577 27.1843 100.765C27.0656 101.104 26.8453 101.339 26.4791 101.385C26.3143 101.413 26.1452 101.396 25.9891 101.336C25.833 101.277 25.6956 101.177 25.591 101.046C25.2282 100.608 25.1966 99.7594 25.5209 99.2882C25.8915 98.7469 26.7639 98.7955 27.0893 99.3786C27.2229 99.6243 27.2841 99.9029 27.2656 100.182Z" fill="#F7F8F8"/>
<path d="M65.6339 100.2C65.6375 100.397 65.6058 100.593 65.5401 100.779C65.2745 101.564 64.3626 101.547 63.9411 101.032C63.5818 100.591 63.5592 99.7415 63.8914 99.2725C64.2564 98.7572 65.0847 98.7923 65.4259 99.3358C65.574 99.5991 65.646 99.8984 65.6339 100.2Z" fill="#F7F8F8"/>
</svg>
