<svg width="123" height="55" viewBox="0 0 123 55" fill="none" xmlns="http://www.w3.org/2000/svg">
<path d="M3.55765 46.3836L2.67917 50.9517C2.56204 51.3031 2.56204 51.5959 2.56204 51.9473C2.56204 52.9429 3.14769 53.4114 3.96761 53.4114C5.02178 53.4114 5.78313 52.7086 6.07595 50.9517L7.01299 46.3836H7.95004L7.07156 50.9517C6.6616 53.2357 5.54887 54.1728 3.90904 54.1728C2.56204 54.1728 1.625 53.47 1.625 51.8887L1.68357 50.776L2.50348 46.325H3.55765V46.3836ZM9.29703 54.1728L9.99982 50.2489C10.1755 49.6047 10.1755 49.0776 10.2926 48.6091H11.1126L10.9369 49.6632C11.4054 48.8433 12.1667 48.4334 12.9866 48.4334C13.6309 48.4334 14.3336 48.8433 14.3336 49.9561L14.2751 50.8931L13.6309 54.0556H12.6352L13.2209 50.8931L13.2795 50.1318C13.2795 49.6047 13.0452 49.1947 12.401 49.1947C11.7568 49.1947 10.7612 49.9561 10.5269 51.3616L9.99982 54.0556H9.29703V54.1728ZM16.3834 54.1728L17.4376 48.6091H18.4332L17.379 54.1728H16.3834ZM17.6133 47.0278C17.6133 46.735 17.9647 46.3836 18.2575 46.3836C18.6089 46.3836 18.8432 46.6179 18.8432 46.9693C18.8432 47.3792 18.6089 47.6135 18.1989 47.6135C17.8475 47.6135 17.6133 47.3792 17.6133 47.0278ZM22.5328 47.145L22.2985 48.6091H23.5869L23.4112 49.3119H22.1228L21.6543 52.0059C21.5372 52.3572 21.5372 52.5915 21.5372 52.9429C21.5372 53.2357 21.7128 53.4114 22.0642 53.4114H22.4742L22.3571 54.1728L21.6543 54.2313C20.8344 54.2313 20.483 53.7628 20.483 53.1772L20.5415 52.123L21.1272 49.3119H20.3073L20.483 48.6091H21.3029L21.5372 47.3792L22.5328 47.145ZM28.6821 53.8214C28.2721 54.0556 27.5694 54.2313 26.8666 54.2313C25.4025 54.2313 24.7582 53.2357 24.7582 52.0059C24.7582 50.366 25.9881 48.4334 27.7451 48.4334C28.7992 48.4334 29.3849 49.0776 29.3849 49.8389C29.3849 51.3031 27.7451 51.713 25.6953 51.5959C25.6367 51.8887 25.6953 52.3572 25.8124 52.7086C26.0467 53.1772 26.4566 53.4114 27.0423 53.4114C27.6865 53.4114 28.155 53.1772 28.5064 53.0015L28.6821 53.8214ZM27.5694 49.1947C26.6909 49.1947 26.0467 50.0732 25.8124 50.8931C27.2765 50.8931 28.3893 50.7174 28.3893 49.8389C28.3893 49.429 28.0964 49.1947 27.5694 49.1947ZM36.7641 45.9736L35.5342 52.3572C35.4171 52.9429 35.3 53.5871 35.3 54.0556H34.3629L34.5386 53.0015C34.0701 53.8214 33.3087 54.2313 32.606 54.2313C31.4932 54.2313 30.9661 53.3529 30.9661 52.1816C30.9661 50.2489 32.4303 48.4334 34.3629 48.4334C34.7143 48.4334 35.1243 48.4919 35.3585 48.6091L35.827 45.9736H36.7641ZM35.1828 49.429C35.0071 49.2533 34.7143 49.1947 34.3044 49.1947C33.0159 49.1947 31.9032 50.5417 31.9032 52.0059C31.9032 52.7086 32.196 53.4114 33.0159 53.4114C33.7187 53.4114 34.6557 52.5915 34.89 51.3616L35.1828 49.429ZM42.4449 46.5007C42.972 46.3836 43.5576 46.325 44.0847 46.325C44.9046 46.325 45.4903 46.5007 45.9003 46.8521C46.2516 47.2035 46.4859 47.6135 46.4859 48.082C46.4859 49.0776 45.666 49.8389 44.8461 50.0732C45.6074 50.3075 46.1345 50.8931 46.1345 51.7716C46.1345 52.5915 45.7246 53.1772 45.256 53.5871C44.6704 54.0556 43.7919 54.2313 42.7377 54.2313L41.0979 54.1728L42.4449 46.5007ZM42.1521 53.3529L42.972 53.4114C44.0847 53.4114 45.1975 52.9429 45.1975 51.713C45.1975 50.776 44.4361 50.366 43.5576 50.366H42.7963L42.1521 53.3529ZM42.8549 49.6632H43.6162C44.6704 49.6632 45.6074 49.0776 45.6074 48.1991C45.6074 47.4378 45.0218 47.145 44.2019 47.145L43.382 47.2035L42.8549 49.6632ZM51.6396 54.1728L51.8153 52.7672C51.2297 53.8799 50.4098 54.2899 49.6484 54.2899C48.7114 54.2899 48.1257 53.47 48.1257 52.5329C48.1257 50.5417 49.5313 48.6091 51.9325 48.6091C52.4596 48.6091 53.1038 48.6676 53.4552 48.8433L52.8695 51.713C52.6938 52.7086 52.6352 53.6457 52.6352 54.2313H51.6396V54.1728ZM52.2839 49.2533L51.6396 49.1947C50.2341 49.1947 49.0042 50.6589 49.0042 52.1816C49.0042 52.8258 49.2385 53.4114 49.9998 53.4114C50.8197 53.4114 51.6982 52.3572 51.9325 50.8931L52.2839 49.2533ZM54.9779 54.1728L55.7392 50.2489L55.9735 48.6091H56.7934L56.6177 49.6632C57.0862 48.8433 57.8475 48.4334 58.6675 48.4334C59.3117 48.4334 60.073 48.8433 60.073 49.9561L59.9559 50.8931L59.3117 54.0556H58.3161L58.9017 50.8931L58.9603 50.1318C58.9603 49.6047 58.726 49.1947 58.0818 49.1947C57.4376 49.1947 56.442 49.9561 56.2077 51.3616L55.7392 54.0556H54.9779V54.1728ZM62.1814 54.1728L63.7041 46.0908H64.6411L63.6455 51.1274C63.8212 50.9517 64.0555 50.7174 64.114 50.5417L66.1052 48.6091H67.218L64.8168 50.8931L66.3981 54.1728H65.3439L64.0555 51.4788L63.2941 52.123L62.8841 54.2313H62.1814V54.1728ZM71.6689 54.1728L72.5474 49.3119H71.8446L71.9617 48.6091H72.7231L72.7817 48.2577C72.9574 47.4378 73.1916 46.7936 73.7187 46.325C74.0115 45.9736 74.5386 45.798 75.0071 45.798C75.4171 45.798 75.6514 45.9151 75.7685 45.9736L75.4757 46.735C75.3585 46.6179 75.1828 46.6179 74.9486 46.6179C74.1872 46.6179 73.7773 47.3792 73.6016 48.2577V48.6091H74.8314L74.6557 49.3119H73.4844L72.5474 54.1728H71.6689ZM81.0393 50.776C81.0393 52.5329 79.8095 54.2899 77.9354 54.2899C76.5884 54.2899 75.827 53.2357 75.827 52.0059C75.827 50.2489 77.1155 48.4919 78.931 48.4919C80.3951 48.4334 81.0393 49.6047 81.0393 50.776ZM76.8227 51.9473C76.8227 52.8258 77.2912 53.47 78.1111 53.47C79.2824 53.47 80.1023 52.0059 80.1023 50.776C80.1023 50.1318 79.7509 49.2533 78.7553 49.2533C77.6426 49.1947 76.8227 50.6589 76.8227 51.9473ZM82.7963 54.1728L83.4405 50.5417C83.6162 49.8389 83.6748 49.0776 83.7333 48.6091H84.5533L84.4361 49.8389C84.729 49.0776 85.3732 48.4919 86.1345 48.4919H86.3688L86.1931 49.429H85.9588C85.1389 49.429 84.4361 50.366 84.1433 51.713L83.6748 54.1728H82.7963ZM92.1667 51.713L90.9369 54.1728H89.9412L93.9822 46.5007H95.095L96.2077 54.1728H95.2121L94.8607 51.713H92.1667ZM94.8022 50.8931L94.4508 48.6676C94.3922 48.2577 94.3922 47.672 94.2751 47.2621L93.6309 48.6676L92.5181 50.8931H94.8022ZM98.1404 54.1728L99.0188 49.3119H98.3161L98.4918 48.6091H99.1945L99.3117 48.2577C99.4288 47.4378 99.7216 46.7936 100.19 46.325C100.483 45.9736 101.01 45.798 101.479 45.798C101.889 45.798 102.123 45.9151 102.24 45.9736L102.006 46.735C101.83 46.6179 101.654 46.6179 101.42 46.6179C100.659 46.6179 100.249 47.3792 100.132 48.2577L100.014 48.4919H101.244L101.069 49.2533H99.8388L98.9603 54.0556H98.1404V54.1728ZM102.298 54.1728L102.943 50.5417L103.294 48.6091H104.114L103.938 49.8389C104.29 49.0776 104.934 48.4919 105.637 48.4919H105.93L105.754 49.429H105.52C104.7 49.429 103.938 50.366 103.704 51.713L103.236 54.1728H102.298ZM106.984 54.1728L108.038 48.6091H109.033L107.979 54.1728H106.984ZM108.214 47.0278C108.214 46.735 108.448 46.3836 108.858 46.3836C109.151 46.3836 109.443 46.6179 109.443 46.9693C109.443 47.3792 109.151 47.6135 108.741 47.6135C108.448 47.6135 108.214 47.3792 108.214 47.0278ZM114.421 53.8799C114.07 54.0556 113.484 54.2313 112.782 54.2313C111.318 54.2313 110.673 53.2357 110.673 52.123C110.673 50.2489 112.02 48.4919 114.012 48.4919C114.48 48.4919 115.007 48.6676 115.124 48.7848L114.89 49.4876C114.656 49.429 114.421 49.2533 114.012 49.2533C112.547 49.2533 111.61 50.6589 111.61 51.9473C111.61 52.8258 112.137 53.4114 113.016 53.4114C113.602 53.4114 114.012 53.2357 114.304 53.06L114.421 53.8799ZM119.985 54.1728L120.102 52.7672C119.575 53.8799 118.755 54.2899 117.994 54.2899C116.998 54.2899 116.471 53.47 116.471 52.5329C116.471 50.5417 117.818 48.6091 120.278 48.6091C120.805 48.6091 121.449 48.6676 121.742 48.8433L121.215 51.713C121.039 52.7086 120.922 53.6457 120.922 54.2313H119.985V54.1728ZM120.629 49.2533L119.985 49.1947C118.58 49.1947 117.35 50.6589 117.35 52.1816C117.35 52.8258 117.584 53.4114 118.345 53.4114C119.165 53.4114 120.044 52.3572 120.278 50.8931L120.629 49.2533ZM25.461 13.5871L21.9471 29.8682C20.8929 33.3821 18.9603 35.8419 14.8607 36.0176C11.3468 36.0176 9.94125 33.675 10.8197 28.7555L13.9237 13.5871H8.76995L5.19747 30.981C4.55326 37.6574 8.47712 39.5315 14.4508 39.3558C20.1316 39.1801 24.0555 36.6032 26.2809 31.4495L30.2048 13.5871H25.461ZM68.8578 21.7862L70.9076 30.2196H63.2941L68.8578 21.7862ZM70.439 13.5871L53.1623 38.7701H57.8475L61.1272 33.9092H71.9032L72.9574 38.7701H78.521L72.3717 13.5871H70.439ZM87.2473 38.9458H97.1448C106.047 38.5359 107.979 34.4949 105.11 27.7599L94.2751 6.61786L87.2473 38.9458ZM111.552 0C102.65 0.409956 100.776 4.50952 103.645 11.1859L114.421 32.328L121.449 0H111.552ZM36.9984 35.6076L38.8139 27.1157H40.8637C43.8505 27.1157 46.3688 28.1698 46.3688 30.981C46.3688 34.3777 43.0306 35.7833 39.2824 35.7833L36.9984 35.6076ZM40.9222 16.8082H43.382C46.076 16.8082 47.7158 17.4524 47.7158 19.6193C47.7158 22.1962 45.256 23.836 41.5664 23.836H39.5167L40.9222 16.8082ZM36.9984 13.5871L36.5884 13.6457L31.3761 38.8873H41.3907C44.7875 38.8873 46.7202 37.9502 48.0086 37.1889C50.0584 35.8419 51.5225 33.675 52.0496 31.0395C52.6938 27.4671 50.2341 25.593 47.1887 25.3001C50.2926 24.5974 52.9281 22.3133 53.1038 19.0337C53.5137 13.5871 47.3644 13.5871 47.3644 13.5871H36.9984Z" fill="#D71920"/>
</svg>
