<svg width="149" height="149" viewBox="0 0 149 149" fill="none" xmlns="http://www.w3.org/2000/svg">
<path d="M83.1415 82.204C83.2041 82.0892 83.2548 81.9685 83.3099 81.8508L103.319 38.3637C103.483 38.0091 103.648 37.6559 103.809 37.2998C103.866 37.1776 103.923 37.0704 104.086 37.0719C104.455 37.0719 104.824 37.0719 105.244 37.0719C105.152 37.2954 105.095 37.4607 105.018 37.6202C97.8836 53.1738 90.75 68.7269 83.6169 84.2795C83.3323 84.8994 83.0387 85.5177 82.7646 86.142C82.5232 86.6933 82.559 87.2297 82.9583 87.6976C83.132 87.9159 83.3648 88.0798 83.6289 88.1696C83.8931 88.2594 84.1775 88.2714 84.4483 88.2042C85.0443 88.0835 85.3423 87.6708 85.5747 87.1612C92.6939 71.6682 99.8107 56.1781 106.925 40.6911C107.604 39.213 108.266 37.7304 108.966 36.2583C109.351 35.4418 109.039 34.293 107.966 34.071V33.9727H102.594C102.599 33.9878 102.601 34.0039 102.599 34.0198C102.598 34.0358 102.593 34.0512 102.585 34.065C102 34.1932 101.691 34.6059 101.451 35.108C100.656 36.8384 99.8613 38.5683 99.0667 40.2977C93.4166 52.629 87.7605 64.9572 82.0985 77.2825C82.0181 77.4598 81.9332 77.6341 81.8363 77.8397C81.6128 77.6907 81.6098 77.4434 81.4891 77.2691C81.0749 76.6731 81.1762 76.1233 81.4757 75.4721C87.3046 62.7942 93.1156 50.1089 98.9087 37.416C99.0905 37.0167 99.2783 36.6189 99.4585 36.224C99.8847 35.2764 99.4302 34.3288 98.4245 34.0561C98.4196 34.0277 98.4084 34.0007 98.3917 33.9771H93.1245C93.1327 34.0078 93.1284 34.0405 93.1126 34.068C92.5315 34.1857 92.1873 34.5701 91.9519 35.0842C91.044 37.0659 90.1346 39.0466 89.2237 41.0263L77.2516 67.1013C77.1964 67.219 77.1398 67.3353 77.0653 67.4872C76.8239 67.2309 76.7673 66.9032 76.6034 66.6424C76.2965 66.1567 76.3457 65.7231 76.5885 65.1971C80.9731 55.7018 85.3438 46.2006 89.7005 36.6934C89.8868 36.2881 90.0268 35.8843 89.924 35.4239C89.8665 35.1266 89.7172 34.8548 89.4973 34.6466C89.2774 34.4384 88.9978 34.3044 88.6978 34.2632C88.5198 34.2421 88.3405 34.2336 88.1614 34.2379C86.7935 34.2379 85.4257 34.2632 84.0594 34.2274C83.1743 34.2036 82.6275 34.5821 82.2714 35.3688C79.8715 40.6176 77.4622 45.8639 75.0434 51.1077C74.1881 52.9702 73.3329 54.8327 72.4776 56.6952C72.418 56.8278 72.3465 56.9544 72.2481 57.1496C72.0098 56.6281 71.8011 56.1602 71.5791 55.6909C71.4972 55.5106 71.6238 55.378 71.6879 55.2439C72.3942 53.6883 73.1039 52.1348 73.8171 50.5832C75.9707 45.8807 78.1237 41.1778 80.2763 36.4744C80.5743 35.8277 80.4864 35.1855 80.0423 34.7057C79.9202 34.5627 79.7688 34.4475 79.5984 34.3679C79.428 34.2882 79.2426 34.2459 79.0545 34.2438C77.4423 34.2438 75.8301 34.2304 74.2179 34.2438C73.5251 34.2438 73.0766 34.6536 72.7965 35.263L71.1873 38.766C70.028 41.293 68.8673 43.8176 67.7051 46.3397C67.647 46.4678 67.6217 46.6228 67.4593 46.7166L66.2539 44.1047C64.9442 41.2528 63.624 38.4039 62.3337 35.5431C62.0357 34.8711 61.684 34.2811 60.9793 33.9771H60.2954C60.1717 34.138 59.9646 34.1649 59.8096 34.2751C59.3045 34.6387 59.0512 35.114 59.1272 35.7428C59.1722 35.966 59.2511 36.1811 59.3611 36.3805C61.4471 40.9359 63.5331 45.4899 65.6191 50.0423C65.6889 50.1676 65.7268 50.3081 65.7297 50.4515C65.7325 50.5949 65.7002 50.7368 65.6355 50.8648C63.1015 56.3569 60.5755 61.8516 58.0574 67.3487C58.0192 67.4721 57.9511 67.5842 57.8592 67.675C57.7357 67.5127 57.6391 67.3315 57.5731 67.1386C52.7187 56.5715 47.8648 46.0034 43.0114 35.4343C42.936 35.2546 42.8463 35.0812 42.7432 34.9158C42.2962 34.2483 41.4856 34.0218 40.8196 34.3794C40.0448 34.7907 39.7557 35.5714 40.091 36.3611C40.1491 36.4967 40.2131 36.6278 40.2727 36.7619L56.2873 71.7173C56.3505 71.8699 56.4216 72.0191 56.5003 72.1643C57.1068 73.2073 58.4671 73.2342 59.1153 72.2254C59.2307 72.0294 59.3327 71.8258 59.4207 71.616L67.2209 54.6837C67.281 54.508 67.3696 54.3434 67.4831 54.1964C67.7111 54.5227 67.8124 54.9042 68.0061 55.2394C68.1641 55.5106 68.1268 55.7445 67.9987 56.0172C67.3222 57.461 66.6577 58.9123 65.9991 60.3606C63.6151 65.5487 61.2311 70.7369 58.8471 75.9251C58.7438 76.1288 58.6893 76.3537 58.688 76.5821C58.6867 76.8104 58.7386 77.036 58.8396 77.2408C58.9663 77.506 59.087 77.7727 59.2077 78.0394C59.8439 79.4475 60.4831 80.854 61.1119 82.265C61.3235 82.7389 61.6423 83.0801 62.1549 83.2112C62.9789 83.4213 63.6613 83.0965 64.0338 82.2978C64.8086 80.6305 65.5729 78.9602 66.3418 77.2899C68.2291 73.1815 70.1194 69.0741 72.0127 64.9676C72.0738 64.835 72.0947 64.6696 72.272 64.5832C72.4314 64.9304 72.5596 65.2671 72.7339 65.577C72.9082 65.887 72.8739 66.1328 72.7339 66.4412C69.739 72.9545 66.7481 79.4718 63.7611 85.993C63.6866 86.1554 63.6047 86.3164 63.5465 86.4847C63.4734 86.6803 63.443 86.8894 63.4575 87.0977C63.472 87.3061 63.531 87.5089 63.6306 87.6925C63.7301 87.8761 63.8679 88.0362 64.0346 88.162C64.2014 88.2878 64.3931 88.3764 64.597 88.4217C65.3196 88.608 65.9946 88.2727 66.3403 87.5277C67.135 85.8142 67.9227 84.0997 68.7034 82.3842C70.5789 78.3056 72.4553 74.2275 74.3327 70.1499C74.4012 70.0009 74.4221 69.8087 74.6217 69.7207C74.7394 69.9726 74.8497 70.208 74.9585 70.4434C75.1834 70.9306 75.3935 71.4268 75.6379 71.9036C75.7575 72.1561 75.9456 72.3699 76.1809 72.5206C76.4162 72.6713 76.6891 72.7529 76.9685 72.7559C77.5809 72.7782 78.0115 72.4579 78.3244 71.9498C78.4119 71.7937 78.491 71.6331 78.5613 71.4685L93.2139 39.6347C93.5606 38.8807 93.9083 38.1273 94.2569 37.3743C94.3255 37.2253 94.3717 37.0629 94.5862 37.0763C94.9409 37.0927 95.2985 37.045 95.6605 37.1076C95.6754 37.3654 95.5264 37.5546 95.4355 37.7528C90.8006 47.8669 86.1628 57.979 81.5219 68.0892C80.3547 70.6321 79.1871 73.1746 78.0189 75.7165C77.9223 75.8963 77.8671 76.0955 77.8573 76.2994C77.8475 76.5033 77.8834 76.7068 77.9623 76.8951C78.757 78.6622 79.5546 80.4259 80.3552 82.1861C80.6279 82.7821 81.1256 83.0428 81.7692 83.0473C82.0554 83.0564 82.338 82.9814 82.5819 82.8315C82.8258 82.6816 83.0204 82.4634 83.1415 82.204ZM69.3143 50.1123C69.9352 48.7535 70.56 47.3951 71.1888 46.0372C72.4687 43.2613 73.7545 40.4884 75.0181 37.7051C75.1671 37.3684 75.3518 37.2343 75.7109 37.276C75.9998 37.2913 76.2892 37.2913 76.5781 37.276L69.8522 51.9376C69.6079 51.4086 69.4157 50.984 69.2175 50.5638C69.1355 50.388 69.2562 50.2539 69.3203 50.1123H69.3143ZM70.3976 61.2099C69.5036 63.1618 68.6096 65.1117 67.7156 67.0596C66.1252 70.5303 64.5339 74.004 62.9416 77.4807C62.8552 77.6699 62.7658 77.8561 62.6511 78.102C62.6187 78.0679 62.5888 78.0316 62.5617 77.9932C62.3545 77.5343 62.0253 77.0888 61.9776 76.6135C61.9329 76.1665 62.3009 75.7478 62.4961 75.3217C64.8543 70.1573 67.2164 64.9969 69.5825 59.8405C69.6434 59.6509 69.7451 59.477 69.8805 59.331C70.104 59.8197 70.3275 60.2861 70.5302 60.7554C70.6017 60.9282 70.4765 61.0668 70.4035 61.2099H70.3976ZM74.6172 62.3184C74.3788 61.8029 74.1926 61.3887 73.9944 60.9774C73.8901 60.7614 74.0138 60.5975 74.0928 60.4261C74.8586 58.7543 75.6275 57.0845 76.3993 55.4167C79.1051 49.5362 81.8105 43.6552 84.5153 37.7736C84.563 37.6708 84.6166 37.5695 84.6643 37.4637C84.6855 37.4035 84.7266 37.3523 84.7807 37.3184C84.8349 37.2846 84.8989 37.2701 84.9623 37.2775C85.3184 37.2775 85.6731 37.2775 86.1022 37.2775L74.6172 62.3184Z" fill="#990D81"/>
<path d="M24.6724 101.356L20.5928 112.477L19.3069 115.889C19.2905 115.935 16.7262 116.029 16.7262 116.029C16.7166 115.966 16.7017 115.904 16.6815 115.843C15.4935 112.905 14.3035 109.967 13.1115 107.029C13.0772 106.945 13.0623 106.843 12.9506 106.818C12.9325 106.846 12.9161 106.875 12.9014 106.904L9.20471 116.029H6.67171C6.70598 115.838 6.59423 115.683 6.53463 115.519C5.86016 113.702 5.18518 111.888 4.50972 110.08C3.5889 107.596 2.66758 105.116 1.74577 102.638L1.73385 102.606L1.34049 101.558L1.27344 101.376C2.3522 101.376 3.43394 101.376 4.5127 101.35C4.79729 101.35 4.86285 101.499 4.94182 101.71C5.68086 103.654 6.42337 105.598 7.16937 107.541C7.44949 108.265 7.72812 108.989 8.04549 109.813C8.13638 109.607 8.19449 109.485 8.24366 109.366C9.26977 106.846 10.2964 104.329 11.3235 101.814C11.541 101.284 11.4263 101.367 12.0223 101.357C12.7673 101.357 13.5123 101.357 14.2677 101.357C14.6983 101.357 14.6998 101.357 14.8637 101.762C15.8441 104.274 16.8241 106.788 17.8035 109.302C17.8601 109.451 17.9272 109.6 18.024 109.826C18.1089 109.627 18.173 109.504 18.2147 109.379L21.2216 101.812C21.4018 101.356 21.4033 101.356 21.8712 101.356H24.6724Z" fill="#990D81"/>
<path d="M58.6692 110.665C58.6692 107.656 58.6692 104.647 58.6692 101.637C58.6692 101.205 58.6692 101.202 58.246 101.201C57.352 101.201 56.458 101.223 55.564 101.189C55.1393 101.172 54.9024 101.3 54.6849 101.68C53.3186 104.064 51.9239 106.432 50.5353 108.803C50.4503 108.952 50.3967 109.121 50.2134 109.224C50.1166 109.059 50.0316 108.926 49.9542 108.777C48.6132 106.375 47.2811 103.976 45.9595 101.567C45.9089 101.442 45.8187 101.337 45.7027 101.268C45.5867 101.199 45.4513 101.17 45.3173 101.186C44.3413 101.21 43.3654 101.186 42.3894 101.196C41.7636 101.196 41.8217 101.122 41.8217 101.774C41.8217 106.215 41.8217 110.657 41.8217 115.098C41.8217 115.406 41.8292 115.716 41.8337 116.025H44.9627V107.316C45.1206 107.348 45.1429 107.451 45.1862 107.53C46.7119 110.251 48.2367 112.972 49.7605 115.694C49.7961 115.766 49.8269 115.84 49.8528 115.916C49.9944 116.001 50.0525 115.902 50.1136 115.8L51.0836 114.161C52.3749 111.975 53.6687 109.794 54.965 107.618C55.0338 107.446 55.1507 107.297 55.3018 107.189V107.585C55.3018 110.22 55.3018 112.852 55.3018 115.482C55.3018 115.661 55.3107 115.84 55.3152 116.019H58.6379C58.6812 115.845 58.6928 115.665 58.6721 115.487C58.6711 113.883 58.6702 112.276 58.6692 110.665Z" fill="#990D81"/>
<path d="M39.1039 113.091C36.0941 113.091 33.0838 113.091 30.073 113.091C29.6141 113.091 29.6111 113.091 29.6096 112.654C29.6096 111.873 29.6096 111.091 29.6096 110.31C29.6096 109.887 29.6096 109.886 30.0343 109.881H30.2771C32.1813 109.881 34.0856 109.881 35.9898 109.881C36.3653 109.881 36.3712 109.881 36.3727 109.513C36.3727 108.814 36.3727 108.114 36.3727 107.414C36.3727 106.956 36.3727 106.996 35.9361 106.993C34.7978 106.986 33.6579 106.993 32.5196 106.993C31.6733 106.993 30.8269 106.993 29.9866 106.993C29.623 106.993 29.6171 106.984 29.6141 106.61C29.6141 105.959 29.6141 105.308 29.6141 104.657C29.6141 104.32 29.623 104.313 29.9717 104.313C31.0773 104.313 32.1843 104.313 33.2914 104.313C35.2274 104.313 37.1644 104.313 39.1024 104.313C39.4734 104.313 39.4779 104.313 39.4809 103.936C39.4809 103.252 39.4809 102.568 39.4809 101.886C39.4809 101.336 39.5464 101.364 38.9519 101.364C34.916 101.364 30.8806 101.364 26.8457 101.364C26.117 101.364 26.2154 101.284 26.2154 101.975C26.2154 106.661 26.2154 111.347 26.2154 116.035H39.6969C39.6969 115.254 39.7148 114.473 39.7148 113.692C39.7058 113.004 39.7774 113.098 39.1039 113.091Z" fill="#990D81"/>
<path d="M140.971 106.96C143.224 105.068 145.476 103.174 147.727 101.278V101.182C146.386 101.182 145.058 101.205 143.724 101.191C143.37 101.178 143.023 101.299 142.754 101.532C140.711 103.198 138.66 104.853 136.602 106.499C136.486 106.592 136.398 106.762 136.182 106.711V106.316C136.182 104.737 136.182 103.158 136.182 101.579C136.182 101.208 136.175 101.203 135.802 101.201C134.923 101.201 134.044 101.201 133.166 101.201C132.791 101.201 132.791 101.201 132.782 101.575C132.782 101.672 132.782 101.77 132.782 101.873V114.422C132.782 114.812 132.792 115.204 132.782 115.593C132.773 115.842 132.853 115.936 133.113 115.933C134.025 115.919 134.935 115.921 135.847 115.933C136.09 115.933 136.221 115.873 136.19 115.606C136.183 115.507 136.183 115.408 136.19 115.308C136.19 113.956 136.19 112.605 136.19 111.256C136.19 111.107 136.151 110.929 136.313 110.809C136.862 110.402 137.408 109.993 137.952 109.579C137.972 109.559 137.997 109.544 138.024 109.536C138.051 109.527 138.08 109.525 138.108 109.529C138.136 109.534 138.162 109.545 138.185 109.562C138.208 109.578 138.227 109.6 138.24 109.625C138.299 109.703 138.362 109.774 138.425 109.853C140.005 111.778 141.584 113.702 143.163 115.627C143.231 115.725 143.323 115.803 143.43 115.855C143.538 115.907 143.656 115.931 143.775 115.925C144.915 115.909 146.055 115.925 147.193 115.915C147.294 115.915 147.421 115.977 147.491 115.846C147.428 115.696 147.333 115.561 147.214 115.45C145.11 112.841 143.005 110.233 140.898 107.624C140.607 107.265 140.536 107.325 140.971 106.96Z" fill="#990D81"/>
<path d="M75.4275 114.173C73.4756 110.064 71.5281 105.953 69.5852 101.842C69.4034 101.454 69.1963 101.32 68.7806 101.347C68.196 101.383 67.6099 101.383 67.0253 101.347C66.632 101.325 66.4293 101.451 66.2595 101.822C64.6846 105.264 63.0843 108.694 61.4915 112.13C60.8955 113.426 60.2995 114.729 59.7109 116.028H62.9338C63.4747 114.934 64.02 113.845 64.5475 112.75C64.6622 112.513 64.8216 112.473 65.0526 112.474C66.4517 112.474 67.8523 112.474 69.2529 112.474C69.7088 112.474 70.1648 112.474 70.6207 112.474C70.7005 112.465 70.7811 112.482 70.8503 112.523C70.9194 112.564 70.9733 112.626 71.0036 112.701C71.5281 113.766 72.063 114.826 72.592 115.889C72.605 115.938 72.6095 115.988 72.6054 116.038H76.2201C76.2917 115.889 76.1844 115.793 76.1322 115.681C75.9028 115.177 75.6644 114.672 75.4275 114.173ZM65.8304 109.852L67.8285 105.939C68.5124 107.3 69.1411 108.556 69.7967 109.861L65.8304 109.852Z" fill="#990D81"/>
<path d="M95.4567 108.516C95.2987 108.411 95.1035 108.353 94.9843 108.196C94.9963 108.169 94.9992 108.153 95.0097 108.144C95.0737 108.093 95.1378 108.044 95.2034 107.995C96.0318 107.399 96.5205 106.603 96.5891 105.581C96.7381 103.467 95.6951 101.899 93.6553 101.399C93.0198 101.255 92.3695 101.189 91.7183 101.201C88.7879 101.201 85.8576 101.201 82.9273 101.201C82.4981 101.201 82.4922 101.201 82.4922 101.622C82.4922 106.245 82.4922 110.869 82.4922 115.493C82.4922 115.917 82.4922 115.917 82.9198 115.922H83.115C85.8506 115.922 88.5858 115.922 91.3204 115.922C91.9063 115.925 92.4919 115.894 93.0742 115.829C95.4179 115.56 97.1702 113.967 97.048 111.331C97.0375 110.767 96.8865 110.214 96.6086 109.722C96.3308 109.231 95.9349 108.816 95.4567 108.516ZM85.8909 104.546C85.8909 104.189 85.8998 104.178 86.2306 104.178C87.9709 104.178 89.7122 104.18 91.4545 104.185C91.7804 104.181 92.105 104.227 92.4171 104.321C92.9758 104.499 93.2202 104.87 93.2112 105.513C93.2023 106.119 92.943 106.481 92.4037 106.648C92.0097 106.752 91.6025 106.797 91.1953 106.782C90.4622 106.79 89.7306 106.782 88.9975 106.782C88.0871 106.782 87.1753 106.782 86.2634 106.782C85.8983 106.782 85.8939 106.773 85.8909 106.398C85.8869 105.782 85.8869 105.164 85.8909 104.546ZM92.8119 112.665C92.2353 112.931 91.611 112.942 90.9941 112.963C90.3266 112.98 89.6531 112.963 88.9916 112.963C88.0976 112.963 87.2036 112.963 86.3096 112.963C85.8998 112.963 85.8939 112.963 85.8924 112.572C85.8924 111.741 85.8924 110.911 85.8924 110.081C85.8924 109.848 85.9684 109.771 86.2008 109.772C87.9888 109.783 89.7768 109.772 91.5648 109.793C91.9567 109.797 92.345 109.869 92.7121 110.006C93.2962 110.225 93.5763 110.665 93.6061 111.279C93.6359 111.893 93.402 112.393 92.8119 112.665Z" fill="#990D81"/>
<path d="M130.344 101.195C129.578 101.208 128.813 101.195 128.048 101.195C127.487 101.195 127.528 101.149 127.528 101.728C127.528 104.332 127.528 106.936 127.528 109.54C127.528 109.703 127.583 109.885 127.423 110.077C127.285 109.919 127.171 109.779 127.046 109.652C124.389 106.944 121.733 104.237 119.079 101.529C118.981 101.413 118.857 101.322 118.717 101.263C118.578 101.204 118.426 101.178 118.275 101.187C117.64 101.211 117.005 101.187 116.37 101.195C115.774 101.195 115.806 101.131 115.806 101.734V115.357C115.806 115.456 115.806 115.553 115.806 115.655C115.795 115.834 115.864 115.924 116.056 115.922C116.935 115.922 117.814 115.922 118.693 115.922C118.875 115.922 118.969 115.861 118.963 115.672C118.963 115.541 118.963 115.411 118.963 115.28C118.963 112.66 118.963 110.04 118.963 107.419C118.941 107.243 118.953 107.064 119 106.893C119.167 106.909 119.23 107.042 119.316 107.124C119.902 107.711 120.483 108.304 121.067 108.894C123.284 111.141 125.501 113.389 127.718 115.639C127.802 115.736 127.907 115.812 128.025 115.861C128.142 115.911 128.27 115.933 128.398 115.925C128.994 115.906 129.603 115.925 130.205 115.925C130.68 115.925 130.68 115.925 130.685 115.445V101.818C130.685 101.719 130.677 101.621 130.685 101.52C130.709 101.269 130.595 101.19 130.344 101.195Z" fill="#990D81"/>
<path d="M111.292 109.59C110.022 106.917 108.755 104.244 107.489 101.571C107.363 101.301 107.217 101.181 106.907 101.193C106.241 101.216 105.566 101.219 104.907 101.193C104.581 101.179 104.421 101.286 104.284 101.584C102.149 106.219 100.007 110.851 97.858 115.48C97.7998 115.607 97.6881 115.724 97.7551 115.927C98.7177 115.927 99.6921 115.927 100.662 115.927C100.902 115.927 100.96 115.765 101.033 115.608C101.52 114.634 102.018 113.671 102.489 112.682C102.533 112.563 102.615 112.463 102.724 112.397C102.832 112.331 102.959 112.304 103.085 112.32C104.858 112.333 106.631 112.336 108.404 112.32C108.744 112.32 108.923 112.415 109.07 112.731C109.526 113.701 110.022 114.653 110.504 115.611C110.583 115.771 110.636 115.93 110.875 115.929C111.98 115.918 113.086 115.929 114.229 115.929C114.217 115.761 114.166 115.599 114.08 115.455C113.149 113.497 112.22 111.542 111.292 109.59ZM103.897 109.739C103.934 109.411 105.387 106.501 105.834 105.865L107.781 109.739H103.897Z" fill="#990D81"/>
</svg>
