<svg width="106" height="112" viewBox="0 0 106 112" fill="none" xmlns="http://www.w3.org/2000/svg">
<g clip-path="url(#clip0_195_22810)">
<path fill-rule="evenodd" clip-rule="evenodd" d="M10.7513 30.8647L10.9366 30.1254L11.1219 29.2013L19.2757 0L106.003 0.184818L10.1953 77.9934L53.9296 25.3201H21.1289L19.2757 25.505C15.3841 25.6898 11.8631 28.0924 10.7513 30.8647Z" fill="#808285"/>
<path fill-rule="evenodd" clip-rule="evenodd" d="M101.367 53.4123C101.367 53.0427 98.5877 69.8612 93.9548 87.2341L3.33594 87.7886L101.182 8.87109L57.2625 61.914H90.2485L92.1017 61.7292C95.9933 61.5444 100.07 56.1846 101.367 53.4123Z" fill="#ED1C24"/>
<path fill-rule="evenodd" clip-rule="evenodd" d="M15.3811 111.999H0L10.5629 97.5836H3.52098L4.07692 93.5176H18.7168L8.15385 107.933H15.9371L15.3811 111.999ZM18.3462 111.999L20.7552 93.5176H31.3182L30.7622 97.5836H24.8322L24.4615 100.726H30.021L29.6504 104.792H23.9056L23.535 107.933H29.465L28.9091 111.999H18.3462ZM32.0594 111.999L34.4685 93.5176H39.1014L44.4755 103.128L44.8462 104.237L45.5874 106.27C45.5984 105.097 45.6602 103.926 45.7727 102.759L46.8846 93.5176H51.5175L49.1084 111.999H44.6608L39.2867 102.574L38.7308 101.28L37.9895 99.247C37.98 100.481 37.9182 101.714 37.8042 102.943L36.6923 111.999H32.0594ZM53 111.999L55.4091 93.5176H60.2273L57.8182 111.999H53ZM64.1189 111.999L65.972 97.9532H62.0804L62.6364 93.5176H75.2378L74.6818 97.9532H70.7902L68.9371 111.999H64.1189ZM75.0525 111.999L77.4615 93.5176H82.2797L81.3532 100.726H87.6539L88.5804 93.5176H93.3986L90.9895 111.999H86.1713L87.0979 104.422H80.7972L79.8706 111.999H75.0525Z" fill="#808285"/>
</g>
<defs>
<clipPath id="clip0_195_22810">
<rect width="106" height="112" fill="white"/>
</clipPath>
</defs>
</svg>
